<svg width="61" height="72" viewBox="0 0 61 72" fill="none" xmlns="http://www.w3.org/2000/svg">
<rect x="3" width="56" height="56" rx="18" fill="#2F3135"/>
<path d="M43 27.6923C43 28.6269 42.2423 29.3846 41.3077 29.3846H37H33V34V37V38.3077C33 39.2423 32.2423 40 31.3077 40C30.3731 40 29.6154 39.2423 29.6154 38.3077V29.3846H20.6923C19.7577 29.3846 19 28.6269 19 27.6923C19 26.7577 19.7577 26 20.6923 26H25H29.6154V17.6923C29.6154 16.7577 30.3731 16 31.3077 16C32.2423 16 33 16.7577 33 17.6923V19V22V26H37H41.3077C42.2423 26 43 26.7577 43 27.6923Z" fill="#ACACAE"/>
<path d="M43 27.6923C43 28.6269 42.2423 29.3846 41.3077 29.3846H37H33V34V37V38.3077C33 39.2423 32.2423 40 31.3077 40C30.3731 40 29.6154 39.2423 29.6154 38.3077V29.3846H20.6923C19.7577 29.3846 19 28.6269 19 27.6923C19 26.7577 19.7577 26 20.6923 26H25H29.6154V17.6923C29.6154 16.7577 30.3731 16 31.3077 16C32.2423 16 33 16.7577 33 17.6923V19V22V26H37H41.3077C42.2423 26 43 26.7577 43 27.6923Z" stroke="#ACACAE"/>
<path d="M7.55402 69.436V62.644H3.87002L3.81002 64.408C3.78602 65 3.74602 65.568 3.69002 66.112C3.64202 66.656 3.57002 67.148 3.47402 67.588C3.37802 68.02 3.24202 68.376 3.06602 68.656C2.89802 68.936 2.68202 69.108 2.41802 69.172L1.12202 68.956C1.43402 68.98 1.69002 68.876 1.89002 68.644C2.09802 68.404 2.25802 68.072 2.37002 67.648C2.49002 67.216 2.57802 66.716 2.63402 66.148C2.69002 65.572 2.73002 64.956 2.75402 64.3L2.83802 61.6H8.74202V69.436H7.55402ZM0.822016 71.836L0.834016 68.956H9.97802V71.836H8.86202V70H1.95002L1.93802 71.836H0.822016ZM14.0099 70.072C13.3699 70.072 12.8019 69.932 12.3059 69.652C11.8099 69.372 11.4179 68.988 11.1299 68.5C10.8419 68.004 10.6979 67.444 10.6979 66.82C10.6979 66.188 10.8419 65.628 11.1299 65.14C11.4179 64.652 11.8099 64.272 12.3059 64C12.8019 63.72 13.3699 63.58 14.0099 63.58C14.6419 63.58 15.2059 63.72 15.7019 64C16.2059 64.272 16.5979 64.652 16.8779 65.14C17.1659 65.62 17.3099 66.18 17.3099 66.82C17.3099 67.452 17.1659 68.012 16.8779 68.5C16.5979 68.988 16.2059 69.372 15.7019 69.652C15.2059 69.932 14.6419 70.072 14.0099 70.072ZM14.0099 69.064C14.4179 69.064 14.7819 68.972 15.1019 68.788C15.4299 68.604 15.6859 68.344 15.8699 68.008C16.0539 67.664 16.1459 67.268 16.1459 66.82C16.1459 66.364 16.0539 65.972 15.8699 65.644C15.6859 65.308 15.4299 65.048 15.1019 64.864C14.7819 64.68 14.4179 64.588 14.0099 64.588C13.6019 64.588 13.2379 64.68 12.9179 64.864C12.5979 65.048 12.3419 65.308 12.1499 65.644C11.9579 65.972 11.8619 66.364 11.8619 66.82C11.8619 67.268 11.9579 67.664 12.1499 68.008C12.3419 68.344 12.5979 68.604 12.9179 68.788C13.2379 68.972 13.6019 69.064 14.0099 69.064ZM21.9134 70.096C21.3854 70.096 20.9174 70.012 20.5094 69.844C20.1094 69.676 19.7654 69.428 19.4774 69.1C19.1894 68.764 18.9694 68.344 18.8174 67.84C18.6734 67.328 18.6014 66.728 18.6014 66.04C18.6014 65.496 18.6494 65.008 18.7454 64.576C18.8414 64.144 18.9774 63.76 19.1534 63.424C19.3374 63.088 19.5614 62.796 19.8254 62.548C20.0974 62.3 20.4014 62.096 20.7374 61.936C21.0814 61.768 21.4574 61.64 21.8654 61.552L24.7694 60.904L24.9374 61.972L22.2614 62.548C22.1014 62.58 21.9094 62.628 21.6854 62.692C21.4614 62.756 21.2334 62.856 21.0014 62.992C20.7694 63.12 20.5534 63.3 20.3534 63.532C20.1534 63.764 19.9934 64.068 19.8734 64.444C19.7534 64.812 19.6934 65.268 19.6934 65.812C19.6934 65.964 19.6974 66.08 19.7054 66.16C19.7134 66.24 19.7214 66.32 19.7294 66.4C19.7454 66.48 19.7574 66.6 19.7654 66.76L19.2854 66.268C19.4134 65.828 19.6174 65.444 19.8974 65.116C20.1774 64.788 20.5134 64.536 20.9054 64.36C21.3054 64.176 21.7414 64.084 22.2134 64.084C22.8054 64.084 23.3294 64.212 23.7854 64.468C24.2494 64.724 24.6134 65.076 24.8774 65.524C25.1414 65.972 25.2734 66.484 25.2734 67.06C25.2734 67.644 25.1334 68.168 24.8534 68.632C24.5814 69.088 24.1934 69.448 23.6894 69.712C23.1854 69.968 22.5934 70.096 21.9134 70.096ZM22.0214 69.136C22.4294 69.136 22.7894 69.048 23.1014 68.872C23.4134 68.688 23.6574 68.444 23.8334 68.14C24.0094 67.828 24.0974 67.48 24.0974 67.096C24.0974 66.712 24.0094 66.372 23.8334 66.076C23.6574 65.78 23.4134 65.548 23.1014 65.38C22.7894 65.204 22.4214 65.116 21.9974 65.116C21.5974 65.116 21.2374 65.2 20.9174 65.368C20.5974 65.528 20.3494 65.756 20.1734 66.052C19.9974 66.34 19.9094 66.676 19.9094 67.06C19.9094 67.444 19.9974 67.796 20.1734 68.116C20.3574 68.428 20.6054 68.676 20.9174 68.86C21.2374 69.044 21.6054 69.136 22.0214 69.136ZM30.7601 70V68.656L30.7001 68.404V66.112C30.7001 65.624 30.5561 65.248 30.2681 64.984C29.9881 64.712 29.5641 64.576 28.9961 64.576C28.6201 64.576 28.2521 64.64 27.8921 64.768C27.5321 64.888 27.2281 65.052 26.9801 65.26L26.5001 64.396C26.8281 64.132 27.2201 63.932 27.6761 63.796C28.1401 63.652 28.6241 63.58 29.1281 63.58C30.0001 63.58 30.6721 63.792 31.1441 64.216C31.6161 64.64 31.8521 65.288 31.8521 66.16V70H30.7601ZM28.6721 70.072C28.2001 70.072 27.7841 69.992 27.4241 69.832C27.0721 69.672 26.8001 69.452 26.6081 69.172C26.4161 68.884 26.3201 68.56 26.3201 68.2C26.3201 67.856 26.4001 67.544 26.5601 67.264C26.7281 66.984 26.9961 66.76 27.3641 66.592C27.7401 66.424 28.2441 66.34 28.8761 66.34H30.8921V67.168H28.9241C28.3481 67.168 27.9601 67.264 27.7601 67.456C27.5601 67.648 27.4601 67.88 27.4601 68.152C27.4601 68.464 27.5841 68.716 27.8321 68.908C28.0801 69.092 28.4241 69.184 28.8641 69.184C29.2961 69.184 29.6721 69.088 29.9921 68.896C30.3201 68.704 30.5561 68.424 30.7001 68.056L30.9281 68.848C30.7761 69.224 30.5081 69.524 30.1241 69.748C29.7401 69.964 29.2561 70.072 28.6721 70.072ZM33.9265 70V63.64H36.8785C37.6225 63.64 38.2065 63.784 38.6305 64.072C39.0625 64.352 39.2785 64.752 39.2785 65.272C39.2785 65.792 39.0745 66.196 38.6665 66.484C38.2665 66.764 37.7345 66.904 37.0705 66.904L37.2505 66.592C38.0105 66.592 38.5745 66.732 38.9425 67.012C39.3105 67.292 39.4945 67.704 39.4945 68.248C39.4945 68.8 39.2865 69.232 38.8705 69.544C38.4625 69.848 37.8345 70 36.9865 70H33.9265ZM35.0545 69.112H36.9025C37.3825 69.112 37.7425 69.04 37.9825 68.896C38.2225 68.744 38.3425 68.504 38.3425 68.176C38.3425 67.84 38.2305 67.596 38.0065 67.444C37.7905 67.284 37.4465 67.204 36.9745 67.204H35.0545V69.112ZM35.0545 66.376H36.7825C37.2225 66.376 37.5545 66.296 37.7785 66.136C38.0105 65.968 38.1265 65.736 38.1265 65.44C38.1265 65.136 38.0105 64.908 37.7785 64.756C37.5545 64.604 37.2225 64.528 36.7825 64.528H35.0545V66.376ZM41.2976 70V63.64H42.4496V68.272L46.3496 63.64H47.3936V70H46.2416V65.368L42.3536 70H41.2976ZM50.8897 70V64.348L51.1777 64.648H48.5617V63.64H54.3697V64.648H51.7657L52.0417 64.348V70H50.8897ZM58.4876 65.8C59.2956 65.808 59.9116 65.992 60.3356 66.352C60.7596 66.712 60.9716 67.22 60.9716 67.876C60.9716 68.564 60.7396 69.096 60.2756 69.472C59.8116 69.84 59.1556 70.02 58.3076 70.012L55.5476 70V63.64H56.6996V65.788L58.4876 65.8ZM58.2116 69.136C58.7316 69.144 59.1236 69.04 59.3876 68.824C59.6596 68.608 59.7956 68.288 59.7956 67.864C59.7956 67.448 59.6636 67.144 59.3996 66.952C59.1356 66.76 58.7396 66.66 58.2116 66.652L56.6996 66.628V69.124L58.2116 69.136Z" fill="#ACACAE"/>
</svg>
