<svg width="67" height="73" viewBox="0 0 67 73" fill="none" xmlns="http://www.w3.org/2000/svg">
<rect x="4" width="56.3711" height="56.3711" rx="18" fill="#183347"/>
<path fill-rule="evenodd" clip-rule="evenodd" d="M35.5769 18.1246H29.171C28.8123 18.1246 28.5305 17.8428 28.5305 17.4841V16.2029C28.5305 15.8442 28.8123 15.5623 29.171 15.5623H35.5769C35.9356 15.5623 36.2174 15.8442 36.2174 16.2029V17.4841C36.2174 17.8428 35.9356 18.1246 35.5769 18.1246ZM26.6087 19.4058H38.1392C38.4979 19.4058 38.7798 19.6877 38.7798 20.0464V40.545C38.7798 40.9037 38.4979 41.1856 38.1392 41.1856H26.6087C26.25 41.1856 25.9681 40.9037 25.9681 40.545V20.0464C25.9681 19.6877 26.25 19.4058 26.6087 19.4058ZM32.9633 36.9705L36.1662 29.9241C36.2559 29.7192 36.2302 29.4885 36.1021 29.3092C35.9868 29.1298 35.7818 29.0145 35.564 29.0145H33.0017V23.8899C33.0017 23.5824 32.7967 23.3262 32.5021 23.2621C32.2074 23.198 31.9127 23.3518 31.7846 23.6208L28.5817 30.6672C28.492 30.8722 28.5177 31.1028 28.633 31.2822C28.7483 31.4615 28.9532 31.5768 29.171 31.5768H31.7334V36.7015C31.7334 37.009 31.9384 37.2652 32.233 37.3293C32.2843 37.3421 32.3227 37.3421 32.374 37.3421C32.6174 37.3421 32.848 37.2011 32.9633 36.9705Z" fill="#005BFF"/>
<path d="M0.0775313 70V61.6H6.41353V62.62H1.26553V65.02H3.88153C4.88153 65.02 5.64153 65.228 6.16153 65.644C6.68153 66.06 6.94153 66.664 6.94153 67.456C6.94153 68.272 6.65753 68.9 6.08953 69.34C5.52953 69.78 4.72553 70 3.67753 70H0.0775313ZM1.26553 69.052H3.62953C4.32553 69.052 4.84953 68.92 5.20153 68.656C5.56153 68.392 5.74153 68 5.74153 67.48C5.74153 66.472 5.03753 65.968 3.62953 65.968H1.26553V69.052ZM12.5629 70V68.656L12.5029 68.404V66.112C12.5029 65.624 12.3589 65.248 12.0709 64.984C11.7909 64.712 11.3669 64.576 10.7989 64.576C10.4229 64.576 10.0549 64.64 9.69488 64.768C9.33488 64.888 9.03088 65.052 8.78288 65.26L8.30288 64.396C8.63088 64.132 9.02288 63.932 9.47888 63.796C9.94288 63.652 10.4269 63.58 10.9309 63.58C11.8029 63.58 12.4749 63.792 12.9469 64.216C13.4189 64.64 13.6549 65.288 13.6549 66.16V70H12.5629ZM10.4749 70.072C10.0029 70.072 9.58688 69.992 9.22688 69.832C8.87488 69.672 8.60288 69.452 8.41088 69.172C8.21888 68.884 8.12288 68.56 8.12288 68.2C8.12288 67.856 8.20288 67.544 8.36288 67.264C8.53088 66.984 8.79888 66.76 9.16688 66.592C9.54288 66.424 10.0469 66.34 10.6789 66.34H12.6949V67.168H10.7269C10.1509 67.168 9.76288 67.264 9.56288 67.456C9.36288 67.648 9.26288 67.88 9.26288 68.152C9.26288 68.464 9.38688 68.716 9.63488 68.908C9.88288 69.092 10.2269 69.184 10.6669 69.184C11.0989 69.184 11.4749 69.088 11.7949 68.896C12.1229 68.704 12.3589 68.424 12.5029 68.056L12.7309 68.848C12.5789 69.224 12.3109 69.524 11.9269 69.748C11.5429 69.964 11.0589 70.072 10.4749 70.072ZM16.9893 70V64.348L17.2773 64.648H14.6613V63.64H20.4693V64.648H17.8653L18.1413 64.348V70H16.9893ZM25.5473 70V68.656L25.4873 68.404V66.112C25.4873 65.624 25.3433 65.248 25.0553 64.984C24.7753 64.712 24.3513 64.576 23.7833 64.576C23.4073 64.576 23.0393 64.64 22.6793 64.768C22.3193 64.888 22.0153 65.052 21.7673 65.26L21.2873 64.396C21.6153 64.132 22.0073 63.932 22.4633 63.796C22.9273 63.652 23.4113 63.58 23.9153 63.58C24.7873 63.58 25.4593 63.792 25.9313 64.216C26.4033 64.64 26.6393 65.288 26.6393 66.16V70H25.5473ZM23.4593 70.072C22.9873 70.072 22.5713 69.992 22.2113 69.832C21.8593 69.672 21.5873 69.452 21.3953 69.172C21.2033 68.884 21.1073 68.56 21.1073 68.2C21.1073 67.856 21.1873 67.544 21.3473 67.264C21.5153 66.984 21.7833 66.76 22.1513 66.592C22.5273 66.424 23.0313 66.34 23.6633 66.34H25.6793V67.168H23.7113C23.1353 67.168 22.7473 67.264 22.5473 67.456C22.3473 67.648 22.2473 67.88 22.2473 68.152C22.2473 68.464 22.3713 68.716 22.6193 68.908C22.8673 69.092 23.2113 69.184 23.6513 69.184C24.0833 69.184 24.4593 69.088 24.7793 68.896C25.1073 68.704 25.3433 68.424 25.4873 68.056L25.7153 68.848C25.5633 69.224 25.2953 69.524 24.9113 69.748C24.5273 69.964 24.0433 70.072 23.4593 70.072ZM32.0857 70.072C31.5577 70.072 31.0737 69.952 30.6337 69.712C30.2017 69.464 29.8537 69.1 29.5897 68.62C29.3337 68.14 29.2057 67.54 29.2057 66.82C29.2057 66.1 29.3297 65.5 29.5777 65.02C29.8337 64.54 30.1777 64.18 30.6097 63.94C31.0497 63.7 31.5417 63.58 32.0857 63.58C32.7097 63.58 33.2617 63.716 33.7417 63.988C34.2217 64.26 34.6017 64.64 34.8817 65.128C35.1617 65.608 35.3017 66.172 35.3017 66.82C35.3017 67.468 35.1617 68.036 34.8817 68.524C34.6017 69.012 34.2217 69.392 33.7417 69.664C33.2617 69.936 32.7097 70.072 32.0857 70.072ZM28.7137 72.328V63.64H29.8177V65.356L29.7457 66.832L29.8657 68.308V72.328H28.7137ZM31.9897 69.064C32.3977 69.064 32.7617 68.972 33.0817 68.788C33.4097 68.604 33.6657 68.344 33.8497 68.008C34.0417 67.664 34.1377 67.268 34.1377 66.82C34.1377 66.364 34.0417 65.972 33.8497 65.644C33.6657 65.308 33.4097 65.048 33.0817 64.864C32.7617 64.68 32.3977 64.588 31.9897 64.588C31.5897 64.588 31.2257 64.68 30.8977 64.864C30.5777 65.048 30.3217 65.308 30.1297 65.644C29.9457 65.972 29.8537 66.364 29.8537 66.82C29.8537 67.268 29.9457 67.664 30.1297 68.008C30.3217 68.344 30.5777 68.604 30.8977 68.788C31.2257 68.972 31.5897 69.064 31.9897 69.064ZM39.8074 70.072C39.1274 70.072 38.5274 69.932 38.0074 69.652C37.4954 69.372 37.0954 68.988 36.8074 68.5C36.5274 68.012 36.3874 67.452 36.3874 66.82C36.3874 66.188 36.5234 65.628 36.7954 65.14C37.0754 64.652 37.4554 64.272 37.9354 64C38.4234 63.72 38.9714 63.58 39.5794 63.58C40.1954 63.58 40.7394 63.716 41.2114 63.988C41.6834 64.26 42.0514 64.644 42.3154 65.14C42.5874 65.628 42.7234 66.2 42.7234 66.856C42.7234 66.904 42.7194 66.96 42.7114 67.024C42.7114 67.088 42.7074 67.148 42.6994 67.204H37.2874V66.376H42.0994L41.6314 66.664C41.6394 66.256 41.5554 65.892 41.3794 65.572C41.2034 65.252 40.9594 65.004 40.6474 64.828C40.3434 64.644 39.9874 64.552 39.5794 64.552C39.1794 64.552 38.8234 64.644 38.5114 64.828C38.1994 65.004 37.9554 65.256 37.7794 65.584C37.6034 65.904 37.5154 66.272 37.5154 66.688V66.88C37.5154 67.304 37.6114 67.684 37.8034 68.02C38.0034 68.348 38.2794 68.604 38.6314 68.788C38.9834 68.972 39.3874 69.064 39.8434 69.064C40.2194 69.064 40.5594 69 40.8634 68.872C41.1754 68.744 41.4474 68.552 41.6794 68.296L42.3154 69.04C42.0274 69.376 41.6674 69.632 41.2354 69.808C40.8114 69.984 40.3354 70.072 39.8074 70.072ZM44.5105 70V63.64H45.6625V68.272L49.5625 63.64H50.6065V70H49.4545V65.368L45.5665 70H44.5105ZM47.4865 62.812C46.9025 62.812 46.4425 62.672 46.1065 62.392C45.7785 62.104 45.6105 61.692 45.6025 61.156H46.3825C46.3905 61.46 46.4905 61.7 46.6825 61.876C46.8825 62.052 47.1465 62.14 47.4745 62.14C47.8025 62.14 48.0665 62.052 48.2665 61.876C48.4665 61.7 48.5705 61.46 48.5785 61.156H49.3825C49.3745 61.692 49.2025 62.104 48.8665 62.392C48.5305 62.672 48.0705 62.812 47.4865 62.812ZM57.4506 70L54.9906 66.904L55.9386 66.328L58.8066 70H57.4506ZM52.8426 70V63.64H53.9946V70H52.8426ZM53.6466 67.312V66.328H55.7466V67.312H53.6466ZM56.0346 66.952L54.9666 66.808L57.4026 63.64H58.6386L56.0346 66.952ZM60.0144 70V63.64H61.1664V68.272L65.0664 63.64H66.1104V70H64.9584V65.368L61.0704 70H60.0144Z" fill="#F5F7FA"/>
</svg>
