<svg width="57" height="72" viewBox="0 0 57 72" fill="none" xmlns="http://www.w3.org/2000/svg">
<rect width="56.3711" height="56.3711" rx="18" fill="#183347"/>
<path d="M35.6804 15.5661L40.805 20.6908C41.0613 20.9342 41.0613 21.3442 40.8178 21.6004L38.2555 24.1627C37.9993 24.419 37.6021 24.419 37.3459 24.1627L35.8726 22.6894V37.1537H20.4986V22.6894L19.0381 24.1627C18.7819 24.419 18.3847 24.419 18.1285 24.1627L15.5661 21.6004C15.3099 21.3442 15.3099 20.947 15.5661 20.6908L20.6908 15.5661C20.8061 15.438 20.9726 15.374 21.1392 15.374H23.7015C24.0602 15.374 24.3421 15.6558 24.3421 16.0145C24.3421 18.1285 26.0717 19.858 28.1856 19.858C30.2995 19.858 32.0291 18.1285 32.0291 16.0145C32.0291 15.6558 32.3109 15.374 32.6697 15.374H35.232C35.3985 15.374 35.5651 15.438 35.6804 15.5661Z" fill="#005BFF"/>
<path d="M20.4986 38.4349V40.3566C20.4986 40.7153 20.7805 40.9972 21.1392 40.9972H35.232C35.5907 40.9972 35.8725 40.7153 35.8725 40.3566V38.4349H20.4986Z" fill="#005BFF"/>
<path d="M7.82823 70.096C7.18823 70.096 6.59223 69.988 6.04023 69.772C5.49623 69.556 5.02423 69.256 4.62423 68.872C4.22423 68.48 3.91223 68.024 3.68823 67.504C3.46423 66.984 3.35223 66.416 3.35223 65.8C3.35223 65.184 3.46423 64.616 3.68823 64.096C3.91223 63.576 4.22423 63.124 4.62423 62.74C5.02423 62.348 5.49623 62.044 6.04023 61.828C6.58423 61.612 7.18023 61.504 7.82823 61.504C8.46823 61.504 9.05623 61.612 9.59223 61.828C10.1362 62.036 10.6082 62.336 11.0082 62.728C11.4162 63.112 11.7282 63.564 11.9442 64.084C12.1682 64.604 12.2802 65.176 12.2802 65.8C12.2802 66.424 12.1682 66.996 11.9442 67.516C11.7282 68.036 11.4162 68.492 11.0082 68.884C10.6082 69.268 10.1362 69.568 9.59223 69.784C9.05623 69.992 8.46823 70.096 7.82823 70.096ZM7.82823 69.028C8.29223 69.028 8.72023 68.948 9.11223 68.788C9.51223 68.628 9.85623 68.404 10.1442 68.116C10.4402 67.82 10.6682 67.476 10.8282 67.084C10.9962 66.692 11.0802 66.264 11.0802 65.8C11.0802 65.336 10.9962 64.908 10.8282 64.516C10.6682 64.124 10.4402 63.784 10.1442 63.496C9.85623 63.2 9.51223 62.972 9.11223 62.812C8.72023 62.652 8.29223 62.572 7.82823 62.572C7.35623 62.572 6.92023 62.652 6.52023 62.812C6.12823 62.972 5.78423 63.2 5.48823 63.496C5.19223 63.784 4.96023 64.124 4.79223 64.516C4.63223 64.908 4.55223 65.336 4.55223 65.8C4.55223 66.264 4.63223 66.692 4.79223 67.084C4.96023 67.476 5.19223 67.82 5.48823 68.116C5.78423 68.404 6.12823 68.628 6.52023 68.788C6.92023 68.948 7.35623 69.028 7.82823 69.028ZM18.1729 69.46V64.648H15.4129L15.3529 65.872C15.3369 66.272 15.3089 66.66 15.2689 67.036C15.2369 67.404 15.1809 67.744 15.1009 68.056C15.0289 68.368 14.9209 68.624 14.7769 68.824C14.6329 69.024 14.4409 69.148 14.2009 69.196L13.0609 68.992C13.3089 69 13.5089 68.92 13.6609 68.752C13.8129 68.576 13.9289 68.336 14.0089 68.032C14.0969 67.728 14.1609 67.384 14.2009 67C14.2409 66.608 14.2729 66.204 14.2969 65.788L14.3929 63.64H19.3249V69.46H18.1729ZM12.8089 71.476V68.992H20.2969V71.476H19.2169V70H13.9009V71.476H12.8089ZM24.6296 70.072C23.9496 70.072 23.3496 69.932 22.8296 69.652C22.3176 69.372 21.9176 68.988 21.6296 68.5C21.3496 68.012 21.2096 67.452 21.2096 66.82C21.2096 66.188 21.3456 65.628 21.6176 65.14C21.8976 64.652 22.2776 64.272 22.7576 64C23.2456 63.72 23.7936 63.58 24.4016 63.58C25.0176 63.58 25.5616 63.716 26.0336 63.988C26.5056 64.26 26.8736 64.644 27.1376 65.14C27.4096 65.628 27.5456 66.2 27.5456 66.856C27.5456 66.904 27.5416 66.96 27.5336 67.024C27.5336 67.088 27.5296 67.148 27.5216 67.204H22.1096V66.376H26.9216L26.4536 66.664C26.4616 66.256 26.3776 65.892 26.2016 65.572C26.0256 65.252 25.7816 65.004 25.4696 64.828C25.1656 64.644 24.8096 64.552 24.4016 64.552C24.0016 64.552 23.6456 64.644 23.3336 64.828C23.0216 65.004 22.7776 65.256 22.6016 65.584C22.4256 65.904 22.3376 66.272 22.3376 66.688V66.88C22.3376 67.304 22.4336 67.684 22.6256 68.02C22.8256 68.348 23.1016 68.604 23.4536 68.788C23.8056 68.972 24.2096 69.064 24.6656 69.064C25.0416 69.064 25.3816 69 25.6856 68.872C25.9976 68.744 26.2696 68.552 26.5016 68.296L27.1376 69.04C26.8496 69.376 26.4896 69.632 26.0576 69.808C25.6336 69.984 25.1576 70.072 24.6296 70.072ZM36.705 70L34.677 66.904L35.625 66.328L38.073 70H36.705ZM33.357 67.312V66.328H35.421V67.312H33.357ZM35.733 66.952L34.641 66.808L36.669 63.64H37.905L35.733 66.952ZM29.565 70H28.197L30.633 66.328L31.581 66.904L29.565 70ZM33.705 70H32.553V63.64H33.705V70ZM32.901 67.312H30.849V66.328H32.901V67.312ZM30.537 66.952L28.365 63.64H29.589L31.617 66.808L30.537 66.952ZM43.6846 69.46V64.648H40.9246L40.8646 65.872C40.8486 66.272 40.8206 66.66 40.7806 67.036C40.7486 67.404 40.6926 67.744 40.6126 68.056C40.5406 68.368 40.4326 68.624 40.2886 68.824C40.1446 69.024 39.9526 69.148 39.7126 69.196L38.5726 68.992C38.8206 69 39.0206 68.92 39.1726 68.752C39.3246 68.576 39.4406 68.336 39.5206 68.032C39.6086 67.728 39.6726 67.384 39.7126 67C39.7526 66.608 39.7846 66.204 39.8086 65.788L39.9046 63.64H44.8366V69.46H43.6846ZM38.3206 71.476V68.992H45.8086V71.476H44.7286V70H39.4126V71.476H38.3206ZM51.2094 70V68.656L51.1494 68.404V66.112C51.1494 65.624 51.0054 65.248 50.7174 64.984C50.4374 64.712 50.0134 64.576 49.4454 64.576C49.0694 64.576 48.7014 64.64 48.3414 64.768C47.9814 64.888 47.6774 65.052 47.4294 65.26L46.9494 64.396C47.2774 64.132 47.6694 63.932 48.1254 63.796C48.5894 63.652 49.0734 63.58 49.5774 63.58C50.4494 63.58 51.1214 63.792 51.5934 64.216C52.0654 64.64 52.3014 65.288 52.3014 66.16V70H51.2094ZM49.1214 70.072C48.6494 70.072 48.2334 69.992 47.8734 69.832C47.5214 69.672 47.2494 69.452 47.0574 69.172C46.8654 68.884 46.7694 68.56 46.7694 68.2C46.7694 67.856 46.8494 67.544 47.0094 67.264C47.1774 66.984 47.4454 66.76 47.8134 66.592C48.1894 66.424 48.6934 66.34 49.3254 66.34H51.3414V67.168H49.3734C48.7974 67.168 48.4094 67.264 48.2094 67.456C48.0094 67.648 47.9094 67.88 47.9094 68.152C47.9094 68.464 48.0334 68.716 48.2814 68.908C48.5294 69.092 48.8734 69.184 49.3134 69.184C49.7454 69.184 50.1214 69.088 50.4414 68.896C50.7694 68.704 51.0054 68.424 51.1494 68.056L51.3774 68.848C51.2254 69.224 50.9574 69.524 50.5734 69.748C50.1894 69.964 49.7054 70.072 49.1214 70.072Z" fill="#F5F7FA"/>
</svg>
