<svg width="57" height="71" viewBox="0 0 57 71" fill="none" xmlns="http://www.w3.org/2000/svg">
<rect width="56.3711" height="56.3711" rx="18" fill="#183347"/>
<path d="M28 22.0625C28.5178 22.0625 28.9375 22.4822 28.9375 23V29.25C28.9375 29.7677 28.5178 30.1875 28 30.1875C27.4822 30.1875 27.0625 29.7677 27.0625 29.25V23C27.0625 22.4822 27.4822 22.0625 28 22.0625Z" fill="#005BFF"/>
<path d="M28 34.25C28.6904 34.25 29.25 33.6904 29.25 33C29.25 32.3096 28.6904 31.75 28 31.75C27.3096 31.75 26.75 32.3096 26.75 33C26.75 33.6904 27.3096 34.25 28 34.25Z" fill="#005BFF"/>
<path fill-rule="evenodd" clip-rule="evenodd" d="M23.368 18.5955C24.7079 16.8937 26.1273 15.8125 28 15.8125C29.8726 15.8125 31.292 16.8937 32.632 18.5955C33.9498 20.2693 35.3461 22.7453 37.1329 25.9131L37.6773 26.8784C39.1543 29.497 40.3208 31.5654 40.9335 33.2255C41.5598 34.922 41.7085 36.4624 40.7613 37.8211C39.842 39.1397 38.3083 39.6793 36.3739 39.9339C34.447 40.1875 31.8556 40.1875 28.531 40.1875H27.469C24.1444 40.1875 21.553 40.1875 19.626 39.9339C17.6916 39.6793 16.158 39.1397 15.2387 37.8211C14.2915 36.4624 14.4402 34.922 15.0664 33.2255C15.6792 31.5654 16.8457 29.4971 18.3227 26.8784L18.867 25.9134C20.6538 22.7454 22.0502 20.2693 23.368 18.5955ZM24.8412 19.7554C23.6237 21.3018 22.2963 23.6498 20.4562 26.9124L20.0016 27.7184C18.4688 30.436 17.3796 32.3733 16.8254 33.8748C16.2784 35.3569 16.3542 36.1426 16.7769 36.7489C17.2275 37.3954 18.0734 37.8382 19.8707 38.0749C21.6607 38.3105 24.1283 38.3125 27.5454 38.3125H28.4545C31.8718 38.3125 34.3393 38.3105 36.1293 38.0749C37.9265 37.8382 38.7724 37.3954 39.2231 36.7489C39.6458 36.1426 39.7216 35.3569 39.1745 33.8748C38.6204 32.3733 37.5311 30.436 35.9984 27.7184L35.5438 26.9124C33.7036 23.6498 32.3763 21.3019 31.1588 19.7554C29.9525 18.2233 29.0158 17.6875 28 17.6875C26.9843 17.6875 26.0474 18.2233 24.8412 19.7554Z" fill="#005BFF"/>
<path d="M5.28527 70.096C4.64527 70.096 4.04927 69.988 3.49727 69.772C2.95327 69.556 2.48127 69.256 2.08127 68.872C1.68127 68.48 1.36927 68.024 1.14527 67.504C0.921266 66.984 0.809266 66.416 0.809266 65.8C0.809266 65.184 0.921266 64.616 1.14527 64.096C1.36927 63.576 1.68127 63.124 2.08127 62.74C2.48127 62.348 2.95327 62.044 3.49727 61.828C4.04127 61.612 4.63727 61.504 5.28527 61.504C5.92527 61.504 6.51327 61.612 7.04927 61.828C7.59327 62.036 8.06527 62.336 8.46527 62.728C8.87327 63.112 9.18527 63.564 9.40127 64.084C9.62527 64.604 9.73727 65.176 9.73727 65.8C9.73727 66.424 9.62527 66.996 9.40127 67.516C9.18527 68.036 8.87327 68.492 8.46527 68.884C8.06527 69.268 7.59327 69.568 7.04927 69.784C6.51327 69.992 5.92527 70.096 5.28527 70.096ZM5.28527 69.028C5.74927 69.028 6.17727 68.948 6.56927 68.788C6.96927 68.628 7.31327 68.404 7.60127 68.116C7.89727 67.82 8.12527 67.476 8.28527 67.084C8.45327 66.692 8.53727 66.264 8.53727 65.8C8.53727 65.336 8.45327 64.908 8.28527 64.516C8.12527 64.124 7.89727 63.784 7.60127 63.496C7.31327 63.2 6.96927 62.972 6.56927 62.812C6.17727 62.652 5.74927 62.572 5.28527 62.572C4.81327 62.572 4.37727 62.652 3.97727 62.812C3.58527 62.972 3.24127 63.2 2.94527 63.496C2.64927 63.784 2.41727 64.124 2.24927 64.516C2.08927 64.908 2.00927 65.336 2.00927 65.8C2.00927 66.264 2.08927 66.692 2.24927 67.084C2.41727 67.476 2.64927 67.82 2.94527 68.116C3.24127 68.404 3.58527 68.628 3.97727 68.788C4.37727 68.948 4.81327 69.028 5.28527 69.028ZM11.4851 70V63.64H17.3771V70H16.2251V64.36L16.5011 64.648H12.3611L12.6371 64.36V70H11.4851ZM23.5062 70V68.656L23.4462 68.404V66.112C23.4462 65.624 23.3022 65.248 23.0142 64.984C22.7342 64.712 22.3102 64.576 21.7422 64.576C21.3662 64.576 20.9982 64.64 20.6382 64.768C20.2782 64.888 19.9742 65.052 19.7262 65.26L19.2462 64.396C19.5742 64.132 19.9662 63.932 20.4222 63.796C20.8862 63.652 21.3702 63.58 21.8742 63.58C22.7462 63.58 23.4182 63.792 23.8902 64.216C24.3622 64.64 24.5982 65.288 24.5982 66.16V70H23.5062ZM21.4182 70.072C20.9462 70.072 20.5302 69.992 20.1702 69.832C19.8182 69.672 19.5462 69.452 19.3542 69.172C19.1622 68.884 19.0662 68.56 19.0662 68.2C19.0662 67.856 19.1462 67.544 19.3062 67.264C19.4742 66.984 19.7422 66.76 20.1102 66.592C20.4862 66.424 20.9902 66.34 21.6222 66.34H23.6382V67.168H21.6702C21.0942 67.168 20.7062 67.264 20.5062 67.456C20.3062 67.648 20.2062 67.88 20.2062 68.152C20.2062 68.464 20.3302 68.716 20.5782 68.908C20.8262 69.092 21.1702 69.184 21.6102 69.184C22.0422 69.184 22.4182 69.088 22.7382 68.896C23.0662 68.704 23.3022 68.424 23.4462 68.056L23.6742 68.848C23.5222 69.224 23.2542 69.524 22.8702 69.748C22.4862 69.964 22.0022 70.072 21.4182 70.072ZM29.4446 70.072C28.7966 70.072 28.2166 69.932 27.7046 69.652C27.2006 69.372 26.8046 68.988 26.5166 68.5C26.2286 68.012 26.0846 67.452 26.0846 66.82C26.0846 66.188 26.2286 65.628 26.5166 65.14C26.8046 64.652 27.2006 64.272 27.7046 64C28.2166 63.72 28.7966 63.58 29.4446 63.58C30.0206 63.58 30.5326 63.696 30.9806 63.928C31.4366 64.152 31.7886 64.488 32.0366 64.936L31.1606 65.5C30.9526 65.188 30.6966 64.96 30.3926 64.816C30.0966 64.664 29.7766 64.588 29.4326 64.588C29.0166 64.588 28.6446 64.68 28.3166 64.864C27.9886 65.048 27.7286 65.308 27.5366 65.644C27.3446 65.972 27.2486 66.364 27.2486 66.82C27.2486 67.276 27.3446 67.672 27.5366 68.008C27.7286 68.344 27.9886 68.604 28.3166 68.788C28.6446 68.972 29.0166 69.064 29.4326 69.064C29.7766 69.064 30.0966 68.992 30.3926 68.848C30.6966 68.696 30.9526 68.464 31.1606 68.152L32.0366 68.704C31.7886 69.144 31.4366 69.484 30.9806 69.724C30.5326 69.956 30.0206 70.072 29.4446 70.072ZM33.5281 70V63.64H34.6801V66.34H38.3041V63.64H39.4561V70H38.3041V67.336H34.6801V70H33.5281ZM44.4201 70.072C43.7801 70.072 43.2121 69.932 42.7161 69.652C42.2201 69.372 41.8281 68.988 41.5401 68.5C41.2521 68.004 41.1081 67.444 41.1081 66.82C41.1081 66.188 41.2521 65.628 41.5401 65.14C41.8281 64.652 42.2201 64.272 42.7161 64C43.2121 63.72 43.7801 63.58 44.4201 63.58C45.0521 63.58 45.6161 63.72 46.1121 64C46.6161 64.272 47.0081 64.652 47.2881 65.14C47.5761 65.62 47.7201 66.18 47.7201 66.82C47.7201 67.452 47.5761 68.012 47.2881 68.5C47.0081 68.988 46.6161 69.372 46.1121 69.652C45.6161 69.932 45.0521 70.072 44.4201 70.072ZM44.4201 69.064C44.8281 69.064 45.1921 68.972 45.5121 68.788C45.8401 68.604 46.0961 68.344 46.2801 68.008C46.4641 67.664 46.5561 67.268 46.5561 66.82C46.5561 66.364 46.4641 65.972 46.2801 65.644C46.0961 65.308 45.8401 65.048 45.5121 64.864C45.1921 64.68 44.8281 64.588 44.4201 64.588C44.0121 64.588 43.6481 64.68 43.3281 64.864C43.0081 65.048 42.7521 65.308 42.5601 65.644C42.3681 65.972 42.2721 66.364 42.2721 66.82C42.2721 67.268 42.3681 67.664 42.5601 68.008C42.7521 68.344 43.0081 68.604 43.3281 68.788C43.6481 68.972 44.0121 69.064 44.4201 69.064ZM52.2156 70.072C51.5356 70.072 50.9356 69.932 50.4156 69.652C49.9036 69.372 49.5036 68.988 49.2156 68.5C48.9356 68.012 48.7956 67.452 48.7956 66.82C48.7956 66.188 48.9316 65.628 49.2036 65.14C49.4836 64.652 49.8636 64.272 50.3436 64C50.8316 63.72 51.3796 63.58 51.9876 63.58C52.6036 63.58 53.1476 63.716 53.6196 63.988C54.0916 64.26 54.4596 64.644 54.7236 65.14C54.9956 65.628 55.1316 66.2 55.1316 66.856C55.1316 66.904 55.1276 66.96 55.1196 67.024C55.1196 67.088 55.1156 67.148 55.1076 67.204H49.6956V66.376H54.5076L54.0396 66.664C54.0476 66.256 53.9636 65.892 53.7876 65.572C53.6116 65.252 53.3676 65.004 53.0556 64.828C52.7516 64.644 52.3956 64.552 51.9876 64.552C51.5876 64.552 51.2316 64.644 50.9196 64.828C50.6076 65.004 50.3636 65.256 50.1876 65.584C50.0116 65.904 49.9236 66.272 49.9236 66.688V66.88C49.9236 67.304 50.0196 67.684 50.2116 68.02C50.4116 68.348 50.6876 68.604 51.0396 68.788C51.3916 68.972 51.7956 69.064 52.2516 69.064C52.6276 69.064 52.9676 69 53.2716 68.872C53.5836 68.744 53.8556 68.552 54.0876 68.296L54.7236 69.04C54.4356 69.376 54.0756 69.632 53.6436 69.808C53.2196 69.984 52.7436 70.072 52.2156 70.072Z" fill="white"/>
</svg>
