<svg width="57" height="70" viewBox="0 0 57 70" fill="none" xmlns="http://www.w3.org/2000/svg">
<rect width="56.3711" height="56.3711" rx="18" fill="#183347"/>
<path fill-rule="evenodd" clip-rule="evenodd" d="M26.9044 19.858H29.4667C29.8255 19.858 30.1073 19.5762 30.1073 19.2175V15.374C30.1073 15.0153 29.8255 14.7334 29.4667 14.7334H26.9044C26.5457 14.7334 26.2638 15.0153 26.2638 15.374V19.2175C26.2638 19.5762 26.5457 19.858 26.9044 19.858ZM27.545 37.7943H33.3102C33.669 37.7943 33.9508 37.5125 33.9508 37.1537V35.8726C33.9508 35.5138 33.669 35.232 33.3102 35.232H27.545C27.1863 35.232 26.9044 35.5138 26.9044 35.8726V37.1537C26.9044 37.5125 27.1863 37.7943 27.545 37.7943ZM25.6233 38.4349C25.6233 38.7936 25.9051 39.0755 26.2638 39.0755H33.3102C33.669 39.0755 33.9508 39.3573 33.9508 39.7161V40.9972C33.9508 41.3559 33.669 41.6378 33.3102 41.6378H23.0609C22.7022 41.6378 22.4203 41.3559 22.4203 40.9972V33.9508C22.4203 31.8113 23.1122 29.6846 24.3677 27.955C25.5336 26.3407 26.2766 24.4702 26.2766 22.4844V21.7798C26.2766 21.4211 26.5585 21.1392 26.9172 21.1392H29.4796C29.8383 21.1392 30.1201 21.4211 30.1201 21.7798V22.4844C30.1201 24.4702 30.8632 26.3407 32.0291 27.955C33.1437 29.518 33.8099 31.3757 33.938 33.2846C33.9508 33.6434 33.6561 33.9508 33.2846 33.9508H26.2638C25.9051 33.9508 25.6233 34.2327 25.6233 34.5914V38.4349Z" fill="#005BFF"/>
<path d="M10.9859 69.096C10.3459 69.096 9.75388 68.992 9.20988 68.784C8.67388 68.568 8.20588 68.268 7.80588 67.884C7.41388 67.492 7.10588 67.036 6.88188 66.516C6.65788 65.996 6.54588 65.424 6.54588 64.8C6.54588 64.176 6.65788 63.604 6.88188 63.084C7.10588 62.564 7.41788 62.112 7.81788 61.728C8.21788 61.336 8.68588 61.036 9.22188 60.828C9.76588 60.612 10.3579 60.504 10.9979 60.504C11.6459 60.504 12.2419 60.616 12.7859 60.84C13.3379 61.056 13.8059 61.38 14.1899 61.812L13.4099 62.568C13.0899 62.232 12.7299 61.984 12.3299 61.824C11.9299 61.656 11.5019 61.572 11.0459 61.572C10.5739 61.572 10.1339 61.652 9.72588 61.812C9.32588 61.972 8.97788 62.196 8.68188 62.484C8.38588 62.772 8.15388 63.116 7.98588 63.516C7.82588 63.908 7.74588 64.336 7.74588 64.8C7.74588 65.264 7.82588 65.696 7.98588 66.096C8.15388 66.488 8.38588 66.828 8.68188 67.116C8.97788 67.404 9.32588 67.628 9.72588 67.788C10.1339 67.948 10.5739 68.028 11.0459 68.028C11.5019 68.028 11.9299 67.948 12.3299 67.788C12.7299 67.62 13.0899 67.364 13.4099 67.02L14.1899 67.776C13.8059 68.208 13.3379 68.536 12.7859 68.76C12.2419 68.984 11.6419 69.096 10.9859 69.096ZM16.7354 69V63.348L17.0234 63.648H14.4074V62.64H20.2154V63.648H17.6114L17.8874 63.348V69H16.7354ZM23.9441 69.072C23.2641 69.072 22.6641 68.932 22.1441 68.652C21.6321 68.372 21.2321 67.988 20.9441 67.5C20.6641 67.012 20.5241 66.452 20.5241 65.82C20.5241 65.188 20.6601 64.628 20.9321 64.14C21.2121 63.652 21.5921 63.272 22.0721 63C22.5601 62.72 23.1081 62.58 23.7161 62.58C24.3321 62.58 24.8761 62.716 25.3481 62.988C25.8201 63.26 26.1881 63.644 26.4521 64.14C26.7241 64.628 26.8601 65.2 26.8601 65.856C26.8601 65.904 26.8561 65.96 26.8481 66.024C26.8481 66.088 26.8441 66.148 26.8361 66.204H21.4241V65.376H26.2361L25.7681 65.664C25.7761 65.256 25.6921 64.892 25.5161 64.572C25.3401 64.252 25.0961 64.004 24.7841 63.828C24.4801 63.644 24.1241 63.552 23.7161 63.552C23.3161 63.552 22.9601 63.644 22.6481 63.828C22.3361 64.004 22.0921 64.256 21.9161 64.584C21.7401 64.904 21.6521 65.272 21.6521 65.688V65.88C21.6521 66.304 21.7481 66.684 21.9401 67.02C22.1401 67.348 22.4161 67.604 22.7681 67.788C23.1201 67.972 23.5241 68.064 23.9801 68.064C24.3561 68.064 24.6961 68 25.0001 67.872C25.3121 67.744 25.5841 67.552 25.8161 67.296L26.4521 68.04C26.1641 68.376 25.8041 68.632 25.3721 68.808C24.9481 68.984 24.4721 69.072 23.9441 69.072ZM33.2553 69L30.7953 65.904L31.7433 65.328L34.6113 69H33.2553ZM28.6473 69V62.64H29.7993V69H28.6473ZM29.4513 66.312V65.328H31.5513V66.312H29.4513ZM31.8393 65.952L30.7713 65.808L33.2073 62.64H34.4433L31.8393 65.952ZM34.7631 68.988L34.8351 68.016C34.8911 68.024 34.9431 68.032 34.9911 68.04C35.0391 68.048 35.0831 68.052 35.1231 68.052C35.3791 68.052 35.5791 67.964 35.7231 67.788C35.8751 67.612 35.9871 67.38 36.0591 67.092C36.1311 66.796 36.1831 66.464 36.2151 66.096C36.2471 65.728 36.2711 65.36 36.2871 64.992L36.3951 62.64H41.2791V69H40.1271V63.312L40.4031 63.648H37.1391L37.4031 63.3L37.3191 65.064C37.2951 65.624 37.2511 66.148 37.1871 66.636C37.1231 67.124 37.0231 67.552 36.8871 67.92C36.7591 68.288 36.5791 68.576 36.3471 68.784C36.1231 68.992 35.8311 69.096 35.4711 69.096C35.3671 69.096 35.2551 69.084 35.1351 69.06C35.0231 69.044 34.8991 69.02 34.7631 68.988ZM46.2306 69.072C45.5906 69.072 45.0226 68.932 44.5266 68.652C44.0306 68.372 43.6386 67.988 43.3506 67.5C43.0626 67.004 42.9186 66.444 42.9186 65.82C42.9186 65.188 43.0626 64.628 43.3506 64.14C43.6386 63.652 44.0306 63.272 44.5266 63C45.0226 62.72 45.5906 62.58 46.2306 62.58C46.8626 62.58 47.4266 62.72 47.9226 63C48.4266 63.272 48.8186 63.652 49.0986 64.14C49.3866 64.62 49.5306 65.18 49.5306 65.82C49.5306 66.452 49.3866 67.012 49.0986 67.5C48.8186 67.988 48.4266 68.372 47.9226 68.652C47.4266 68.932 46.8626 69.072 46.2306 69.072ZM46.2306 68.064C46.6386 68.064 47.0026 67.972 47.3226 67.788C47.6506 67.604 47.9066 67.344 48.0906 67.008C48.2746 66.664 48.3666 66.268 48.3666 65.82C48.3666 65.364 48.2746 64.972 48.0906 64.644C47.9066 64.308 47.6506 64.048 47.3226 63.864C47.0026 63.68 46.6386 63.588 46.2306 63.588C45.8226 63.588 45.4586 63.68 45.1386 63.864C44.8186 64.048 44.5626 64.308 44.3706 64.644C44.1786 64.972 44.0826 65.364 44.0826 65.82C44.0826 66.268 44.1786 66.664 44.3706 67.008C44.5626 67.344 44.8186 67.604 45.1386 67.788C45.4586 67.972 45.8226 68.064 46.2306 68.064Z" fill="#F5F7FA"/>
</svg>
