<svg width="65" height="71" viewBox="0 0 65 71" fill="none" xmlns="http://www.w3.org/2000/svg">
<rect x="3" width="56.3711" height="56.3711" rx="18" fill="#183347"/>
<path d="M1.53895 70.096C1.41895 70.096 1.29895 70.088 1.17895 70.072C1.05895 70.056 0.926953 70.032 0.782953 70L0.866953 68.932C0.994953 68.964 1.12295 68.98 1.25095 68.98C1.60295 68.98 1.88295 68.84 2.09095 68.56C2.29895 68.28 2.45095 67.856 2.54695 67.288C2.65095 66.72 2.71895 66.004 2.75095 65.14L2.88295 61.6H8.79895V70H7.62295V62.332L7.91095 62.644H3.65095L3.91495 62.32L3.81895 65.104C3.79495 65.936 3.73895 66.664 3.65095 67.288C3.56295 67.912 3.43095 68.432 3.25495 68.848C3.07895 69.264 2.85095 69.576 2.57095 69.784C2.29895 69.992 1.95495 70.096 1.53895 70.096ZM15.1234 70V68.656L15.0634 68.404V66.112C15.0634 65.624 14.9194 65.248 14.6314 64.984C14.3514 64.712 13.9274 64.576 13.3594 64.576C12.9834 64.576 12.6154 64.64 12.2554 64.768C11.8954 64.888 11.5914 65.052 11.3434 65.26L10.8634 64.396C11.1914 64.132 11.5834 63.932 12.0394 63.796C12.5034 63.652 12.9874 63.58 13.4914 63.58C14.3634 63.58 15.0354 63.792 15.5074 64.216C15.9794 64.64 16.2154 65.288 16.2154 66.16V70H15.1234ZM13.0354 70.072C12.5634 70.072 12.1474 69.992 11.7874 69.832C11.4354 69.672 11.1634 69.452 10.9714 69.172C10.7794 68.884 10.6834 68.56 10.6834 68.2C10.6834 67.856 10.7634 67.544 10.9234 67.264C11.0914 66.984 11.3594 66.76 11.7274 66.592C12.1034 66.424 12.6074 66.34 13.2394 66.34H15.2554V67.168H13.2874C12.7114 67.168 12.3234 67.264 12.1234 67.456C11.9234 67.648 11.8234 67.88 11.8234 68.152C11.8234 68.464 11.9474 68.716 12.1954 68.908C12.4434 69.092 12.7874 69.184 13.2274 69.184C13.6594 69.184 14.0354 69.088 14.3554 68.896C14.6834 68.704 14.9194 68.424 15.0634 68.056L15.2914 68.848C15.1394 69.224 14.8714 69.524 14.4874 69.748C14.1034 69.964 13.6194 70.072 13.0354 70.072ZM18.2898 70V63.64H19.4778L22.2138 68.344H21.7338L24.5418 63.64H25.6218V70H24.5778V64.936L24.7698 65.044L22.2018 69.28H21.6978L19.1178 64.96L19.3458 64.912V70H18.2898ZM27.864 70V63.64H33.756V70H32.604V64.36L32.88 64.648H28.74L29.016 64.36V70H27.864ZM38.7091 70.072C38.0691 70.072 37.5011 69.932 37.0051 69.652C36.5091 69.372 36.1171 68.988 35.8291 68.5C35.5411 68.004 35.3971 67.444 35.3971 66.82C35.3971 66.188 35.5411 65.628 35.8291 65.14C36.1171 64.652 36.5091 64.272 37.0051 64C37.5011 63.72 38.0691 63.58 38.7091 63.58C39.3411 63.58 39.9051 63.72 40.4011 64C40.9051 64.272 41.2971 64.652 41.5771 65.14C41.8651 65.62 42.0091 66.18 42.0091 66.82C42.0091 67.452 41.8651 68.012 41.5771 68.5C41.2971 68.988 40.9051 69.372 40.4011 69.652C39.9051 69.932 39.3411 70.072 38.7091 70.072ZM38.7091 69.064C39.1171 69.064 39.4811 68.972 39.8011 68.788C40.1291 68.604 40.3851 68.344 40.5691 68.008C40.7531 67.664 40.8451 67.268 40.8451 66.82C40.8451 66.364 40.7531 65.972 40.5691 65.644C40.3851 65.308 40.1291 65.048 39.8011 64.864C39.4811 64.68 39.1171 64.588 38.7091 64.588C38.3011 64.588 37.9371 64.68 37.6171 64.864C37.2971 65.048 37.0411 65.308 36.8491 65.644C36.6571 65.972 36.5611 66.364 36.5611 66.82C36.5611 67.268 36.6571 67.664 36.8491 68.008C37.0411 68.344 37.2971 68.604 37.6171 68.788C37.9371 68.972 38.3011 69.064 38.7091 69.064ZM47.6806 67.396C47.3446 67.556 46.9966 67.684 46.6366 67.78C46.2846 67.868 45.9206 67.912 45.5446 67.912C44.7766 67.912 44.1686 67.732 43.7206 67.372C43.2806 67.012 43.0606 66.456 43.0606 65.704V63.64H44.2126V65.632C44.2126 66.088 44.3526 66.424 44.6326 66.64C44.9206 66.856 45.3046 66.964 45.7846 66.964C46.0886 66.964 46.4006 66.924 46.7206 66.844C47.0486 66.764 47.3686 66.652 47.6806 66.508V67.396ZM47.5966 70V63.64H48.7486V70H47.5966ZM55.5931 70L53.1331 66.904L54.0811 66.328L56.9491 70H55.5931ZM50.9851 70V63.64H52.1371V70H50.9851ZM51.7891 67.312V66.328H53.8891V67.312H51.7891ZM54.1771 66.952L53.1091 66.808L55.5451 63.64H56.7811L54.1771 66.952ZM58.157 70V63.64H59.309V68.272L63.209 63.64H64.253V70H63.101V65.368L59.213 70H58.157Z" fill="#F5F7FA"/>
<path fill-rule="evenodd" clip-rule="evenodd" d="M34.2456 16.8782L28.6074 17.879C27.7476 18.034 26.9583 17.3715 26.9583 16.4976C26.9583 15.8069 27.4516 15.229 28.1282 15.1162L33.7665 14.1154C34.6262 13.9604 35.4156 14.6229 35.4156 15.4968C35.4156 16.1734 34.9222 16.7654 34.2456 16.8782ZM37.0648 20.6841L25.7883 22.6716C24.9285 22.8267 24.1392 22.1642 24.1392 21.2762C24.1392 20.5996 24.6325 20.0076 25.3091 19.8948L36.5855 17.9073C37.4453 17.7523 38.2348 18.4148 38.2348 19.2887C38.2348 19.9794 37.7414 20.5573 37.0648 20.6841ZM36.5855 22.2065L25.3091 24.1939C24.6325 24.3067 24.1392 24.8987 24.1392 25.5753C24.1392 26.4493 24.9285 27.1118 25.7883 26.9566L37.0648 24.9692C37.7414 24.8564 38.2348 24.2785 38.2348 23.5878C38.2348 22.7139 37.4453 22.0514 36.5855 22.2065ZM25.3091 28.4793L36.5855 26.4918C37.4453 26.3368 38.2348 26.9993 38.2348 27.8872C38.2348 28.5638 37.7414 29.1558 37.0648 29.2687L25.7883 31.2562C24.9285 31.4112 24.1392 30.7487 24.1392 29.8747C24.1392 29.184 24.6325 28.6061 25.3091 28.4793ZM34.584 31.1432L27.5362 32.3836C27.1979 32.44 26.9583 32.7359 26.9583 33.0743V36.8378C26.9583 37.2747 27.3529 37.6131 27.7899 37.5285L34.8376 36.2881C35.176 36.2317 35.4156 35.9356 35.4156 35.5974V31.8339C35.4156 31.3969 35.021 31.0586 34.584 31.1432ZM28.9457 38.7547L33.1744 38.0077C33.6113 37.9371 34.006 38.2754 34.006 38.7124V39.4595C34.006 41.024 32.7515 42.2785 31.187 42.2785C29.6223 42.2785 28.3678 41.0099 28.3678 39.4595C28.3678 39.107 28.6074 38.8252 28.9457 38.7547Z" fill="#005BFF"/>
</svg>
