<svg width="57" height="71" viewBox="0 0 57 71" fill="none" xmlns="http://www.w3.org/2000/svg">
<rect width="56.3711" height="56.3711" rx="18" fill="#183347"/>
<path d="M5.71816 69.9999V61.5999H6.70216L10.4702 67.9479H9.94216L13.6622 61.5999H14.6462L14.6582 69.9999H13.5062L13.4942 63.4119H13.7702L10.4582 68.9799H9.90616L6.57016 63.4119H6.87016V69.9999H5.71816ZM19.9128 70.0719C19.2328 70.0719 18.6328 69.9319 18.1128 69.6519C17.6008 69.3719 17.2008 68.9879 16.9128 68.4999C16.6328 68.0119 16.4928 67.4519 16.4928 66.8199C16.4928 66.1879 16.6288 65.6279 16.9008 65.1399C17.1808 64.6519 17.5608 64.2719 18.0408 63.9999C18.5288 63.7199 19.0768 63.5799 19.6848 63.5799C20.3008 63.5799 20.8448 63.7159 21.3168 63.9879C21.7888 64.2599 22.1568 64.6439 22.4208 65.1399C22.6928 65.6279 22.8288 66.1999 22.8288 66.8559C22.8288 66.9039 22.8248 66.9599 22.8168 67.0239C22.8168 67.0879 22.8128 67.1479 22.8048 67.2039H17.3928V66.3759H22.2048L21.7368 66.6639C21.7448 66.2559 21.6608 65.8919 21.4848 65.5719C21.3088 65.2519 21.0648 65.0039 20.7528 64.8279C20.4488 64.6439 20.0928 64.5519 19.6848 64.5519C19.2848 64.5519 18.9288 64.6439 18.6168 64.8279C18.3048 65.0039 18.0608 65.2559 17.8848 65.5839C17.7088 65.9039 17.6208 66.2719 17.6208 66.6879V66.8799C17.6208 67.3039 17.7168 67.6839 17.9088 68.0199C18.1088 68.3479 18.3848 68.6039 18.7368 68.7879C19.0888 68.9719 19.4928 69.0639 19.9488 69.0639C20.3248 69.0639 20.6648 68.9999 20.9688 68.8719C21.2808 68.7439 21.5528 68.5519 21.7848 68.2959L22.4208 69.0399C22.1328 69.3759 21.7728 69.6319 21.3408 69.8079C20.9168 69.9839 20.4408 70.0719 19.9128 70.0719ZM25.6065 69.9999V64.3479L25.8945 64.6479H23.2785V63.6399H29.0865V64.6479H26.4825L26.7585 64.3479V69.9999H25.6065ZM34.1644 69.9999V68.6559L34.1044 68.4039V66.1119C34.1044 65.6239 33.9604 65.2479 33.6724 64.9839C33.3924 64.7119 32.9684 64.5759 32.4004 64.5759C32.0244 64.5759 31.6564 64.6399 31.2964 64.7679C30.9364 64.8879 30.6324 65.0519 30.3844 65.2599L29.9044 64.3959C30.2324 64.1319 30.6244 63.9319 31.0804 63.7959C31.5444 63.6519 32.0284 63.5799 32.5324 63.5799C33.4044 63.5799 34.0764 63.7919 34.5484 64.2159C35.0204 64.6399 35.2564 65.2879 35.2564 66.1599V69.9999H34.1644ZM32.0764 70.0719C31.6044 70.0719 31.1884 69.9919 30.8284 69.8319C30.4764 69.6719 30.2044 69.4519 30.0124 69.1719C29.8204 68.8839 29.7244 68.5599 29.7244 68.1999C29.7244 67.8559 29.8044 67.5439 29.9644 67.2639C30.1324 66.9839 30.4004 66.7599 30.7684 66.5919C31.1444 66.4239 31.6484 66.3399 32.2804 66.3399H34.2964V67.1679H32.3284C31.7524 67.1679 31.3644 67.2639 31.1644 67.4559C30.9644 67.6479 30.8644 67.8799 30.8644 68.1519C30.8644 68.4639 30.9884 68.7159 31.2364 68.9079C31.4844 69.0919 31.8284 69.1839 32.2684 69.1839C32.7004 69.1839 33.0764 69.0879 33.3964 68.8959C33.7244 68.7039 33.9604 68.4239 34.1044 68.0559L34.3324 68.8479C34.1804 69.2239 33.9124 69.5239 33.5284 69.7479C33.1444 69.9639 32.6604 70.0719 32.0764 70.0719ZM36.2748 69.9879L36.3468 69.0159C36.4028 69.0239 36.4548 69.0319 36.5028 69.0399C36.5508 69.0479 36.5948 69.0519 36.6348 69.0519C36.8908 69.0519 37.0908 68.9639 37.2348 68.7879C37.3868 68.6119 37.4988 68.3799 37.5708 68.0919C37.6428 67.7959 37.6948 67.4639 37.7268 67.0959C37.7588 66.7279 37.7828 66.3599 37.7988 65.9919L37.9068 63.6399H42.7908V69.9999H41.6388V64.3119L41.9148 64.6479H38.6508L38.9148 64.2999L38.8308 66.0639C38.8068 66.6239 38.7628 67.1479 38.6988 67.6359C38.6348 68.1239 38.5348 68.5519 38.3988 68.9199C38.2708 69.2879 38.0908 69.5759 37.8588 69.7839C37.6348 69.9919 37.3428 70.0959 36.9828 70.0959C36.8788 70.0959 36.7668 70.0839 36.6468 70.0599C36.5348 70.0439 36.4108 70.0199 36.2748 69.9879ZM43.9623 69.9879L44.0343 69.0159C44.0903 69.0239 44.1423 69.0319 44.1903 69.0399C44.2383 69.0479 44.2823 69.0519 44.3223 69.0519C44.5783 69.0519 44.7783 68.9639 44.9223 68.7879C45.0743 68.6119 45.1863 68.3799 45.2583 68.0919C45.3303 67.7959 45.3823 67.4639 45.4143 67.0959C45.4463 66.7279 45.4703 66.3599 45.4863 65.9919L45.5943 63.6399H50.4783V69.9999H49.3263V64.3119L49.6023 64.6479H46.3383L46.6023 64.2999L46.5183 66.0639C46.4943 66.6239 46.4503 67.1479 46.3863 67.6359C46.3223 68.1239 46.2223 68.5519 46.0863 68.9199C45.9583 69.2879 45.7783 69.5759 45.5463 69.7839C45.3223 69.9919 45.0303 70.0959 44.6703 70.0959C44.5663 70.0959 44.4543 70.0839 44.3343 70.0599C44.2223 70.0439 44.0983 70.0199 43.9623 69.9879Z" fill="#F5F7FA"/>
<path fill-rule="evenodd" clip-rule="evenodd" d="M36.7231 19.6445C36.7231 22.0032 32.899 23.9152 28.1817 23.9152C23.4644 23.9152 19.6403 22.0032 19.6403 19.6445C19.6403 17.2859 23.4644 15.3738 28.1817 15.3738C32.899 15.3738 36.7231 17.2859 36.7231 19.6445ZM31.0285 33.168C31.0285 34.7404 29.7537 36.0152 28.1813 36.0152C26.6088 36.0152 25.3342 34.7404 25.3342 33.168C25.3342 31.5957 26.6088 30.3209 28.1813 30.3209C29.7537 30.3209 31.0285 31.5957 31.0285 33.168ZM35.6123 23.431C33.7901 24.5984 31.1422 25.3386 28.1813 25.3386C25.2203 25.3386 22.5724 24.5984 20.7503 23.431C20.2663 23.1179 19.6399 23.4453 19.6399 24.0147V29.0541C19.6399 29.225 19.6968 29.3958 19.8107 29.5239C20.6079 30.4349 21.8891 31.2038 23.4978 31.7304C23.8109 31.8301 24.1953 31.6734 24.3377 31.3745C25.021 29.9225 26.473 28.8975 28.1956 28.8975C29.9181 28.8975 31.37 29.9082 32.0534 31.3745C32.1957 31.6734 32.5801 31.8301 32.8933 31.7304C34.4877 31.2038 35.7831 30.4349 36.5803 29.5239C36.6657 29.3958 36.7227 29.225 36.7227 29.0399V24.0147C36.7227 23.4453 36.0964 23.1179 35.6123 23.431ZM32.8933 33.2248C34.146 32.8547 35.2564 32.3706 36.1675 31.7585C36.4095 31.6019 36.7227 31.7585 36.7227 32.0432V36.7267C36.7227 39.0898 32.8933 40.9973 28.1813 40.9973C23.4693 40.9973 19.6399 39.0898 19.6399 36.7267V32.0432C19.6399 31.7585 19.9531 31.6019 20.1951 31.7585C21.0919 32.3706 22.2023 32.8689 23.4551 33.2248C23.7398 33.2959 23.9248 33.5379 23.9675 33.8226C24.2949 35.8583 26.0459 37.4385 28.1813 37.4385C30.3166 37.4385 32.0676 35.8726 32.3807 33.8226C32.4235 33.5379 32.6227 33.3101 32.8933 33.2248Z" fill="#005BFF"/>
</svg>
