<svg width="57" height="73" viewBox="0 0 57 73" fill="none" xmlns="http://www.w3.org/2000/svg">
<rect width="56.3711" height="56.3711" rx="18" fill="#183347"/>
<path fill-rule="evenodd" clip-rule="evenodd" d="M16.3334 28C16.3334 21.5717 21.5717 16.3334 28 16.3334C34.4284 16.3334 39.6667 21.5717 39.6667 28C39.6667 34.4284 34.4284 39.6667 28 39.6667C21.5717 39.6667 16.3334 34.4284 16.3334 28ZM28.8468 30.5784V32.9584C28.8468 33.4367 28.463 33.8334 28 33.8334C27.5371 33.8334 27.1533 33.4367 27.1533 32.9584V29.7734C27.1533 29.295 27.5371 28.8984 28 28.8984C29.9646 28.8984 31.5565 27.2534 31.5565 25.2467C31.5565 23.24 29.9646 21.5834 28 21.5834C26.0355 21.5834 24.4436 23.2284 24.4436 25.235C24.4436 25.7134 24.0597 26.11 23.5968 26.11C23.1339 26.11 22.75 25.725 22.75 25.235C22.75 22.26 25.1097 19.8334 28 19.8334C30.8903 19.8334 33.25 22.26 33.25 25.235C33.25 27.93 31.342 30.1584 28.8468 30.5784ZM28 37.3334C27.5371 37.3334 27.1533 36.9367 27.1533 36.4584C27.1533 35.98 27.5371 35.5834 28 35.5834C28.463 35.5834 28.8468 35.98 28.8468 36.4584C28.8468 36.9367 28.463 37.3334 28 37.3334Z" fill="#005BFF"/>
<path d="M12.1946 69.436V62.644H8.51064L8.45064 64.408C8.42664 65 8.38664 65.568 8.33064 66.112C8.28264 66.656 8.21064 67.148 8.11464 67.588C8.01864 68.02 7.88264 68.376 7.70664 68.656C7.53864 68.936 7.32264 69.108 7.05864 69.172L5.76264 68.956C6.07464 68.98 6.33064 68.876 6.53064 68.644C6.73864 68.404 6.89864 68.072 7.01064 67.648C7.13064 67.216 7.21864 66.716 7.27464 66.148C7.33064 65.572 7.37064 64.956 7.39464 64.3L7.47864 61.6H13.3826V69.436H12.1946ZM5.46264 71.836L5.47464 68.956H14.6186V71.836H13.5026V70H6.59064L6.57864 71.836H5.46264ZM19.4392 70.072C18.9112 70.072 18.4272 69.952 17.9872 69.712C17.5552 69.464 17.2072 69.1 16.9432 68.62C16.6872 68.14 16.5592 67.54 16.5592 66.82C16.5592 66.1 16.6832 65.5 16.9312 65.02C17.1872 64.54 17.5312 64.18 17.9632 63.94C18.4032 63.7 18.8952 63.58 19.4392 63.58C20.0632 63.58 20.6152 63.716 21.0952 63.988C21.5752 64.26 21.9552 64.64 22.2352 65.128C22.5152 65.608 22.6552 66.172 22.6552 66.82C22.6552 67.468 22.5152 68.036 22.2352 68.524C21.9552 69.012 21.5752 69.392 21.0952 69.664C20.6152 69.936 20.0632 70.072 19.4392 70.072ZM16.0672 72.328V63.64H17.1712V65.356L17.0992 66.832L17.2192 68.308V72.328H16.0672ZM19.3432 69.064C19.7512 69.064 20.1152 68.972 20.4352 68.788C20.7632 68.604 21.0192 68.344 21.2032 68.008C21.3952 67.664 21.4912 67.268 21.4912 66.82C21.4912 66.364 21.3952 65.972 21.2032 65.644C21.0192 65.308 20.7632 65.048 20.4352 64.864C20.1152 64.68 19.7512 64.588 19.3432 64.588C18.9432 64.588 18.5792 64.68 18.2512 64.864C17.9312 65.048 17.6752 65.308 17.4832 65.644C17.2992 65.972 17.2072 66.364 17.2072 66.82C17.2072 67.268 17.2992 67.664 17.4832 68.008C17.6752 68.344 17.9312 68.604 18.2512 68.788C18.5792 68.972 18.9432 69.064 19.3432 69.064ZM24.4771 72.4C24.1731 72.4 23.8771 72.348 23.5891 72.244C23.3011 72.148 23.0531 72.004 22.8451 71.812L23.3371 70.948C23.4971 71.1 23.6731 71.216 23.8651 71.296C24.0571 71.376 24.2611 71.416 24.4771 71.416C24.7571 71.416 24.9891 71.344 25.1731 71.2C25.3571 71.056 25.5291 70.8 25.6891 70.432L26.0851 69.556L26.2051 69.412L28.7011 63.64H29.8291L26.7451 70.636C26.5611 71.084 26.3531 71.436 26.1211 71.692C25.8971 71.948 25.6491 72.128 25.3771 72.232C25.1051 72.344 24.8051 72.4 24.4771 72.4ZM25.9891 70.204L23.0851 63.64H24.2851L26.7571 69.304L25.9891 70.204ZM31.0086 70V63.64H35.6886V64.648H31.8846L32.1606 64.384V70H31.0086ZM39.3107 70.072C38.6707 70.072 38.1027 69.932 37.6067 69.652C37.1107 69.372 36.7187 68.988 36.4307 68.5C36.1427 68.004 35.9987 67.444 35.9987 66.82C35.9987 66.188 36.1427 65.628 36.4307 65.14C36.7187 64.652 37.1107 64.272 37.6067 64C38.1027 63.72 38.6707 63.58 39.3107 63.58C39.9427 63.58 40.5067 63.72 41.0027 64C41.5067 64.272 41.8987 64.652 42.1787 65.14C42.4667 65.62 42.6107 66.18 42.6107 66.82C42.6107 67.452 42.4667 68.012 42.1787 68.5C41.8987 68.988 41.5067 69.372 41.0027 69.652C40.5067 69.932 39.9427 70.072 39.3107 70.072ZM39.3107 69.064C39.7187 69.064 40.0827 68.972 40.4027 68.788C40.7307 68.604 40.9867 68.344 41.1707 68.008C41.3547 67.664 41.4467 67.268 41.4467 66.82C41.4467 66.364 41.3547 65.972 41.1707 65.644C40.9867 65.308 40.7307 65.048 40.4027 64.864C40.0827 64.68 39.7187 64.588 39.3107 64.588C38.9027 64.588 38.5387 64.68 38.2187 64.864C37.8987 65.048 37.6427 65.308 37.4507 65.644C37.2587 65.972 37.1627 66.364 37.1627 66.82C37.1627 67.268 37.2587 67.664 37.4507 68.008C37.6427 68.344 37.8987 68.604 38.2187 68.788C38.5387 68.972 38.9027 69.064 39.3107 69.064ZM47.1062 70.072C46.4262 70.072 45.8262 69.932 45.3062 69.652C44.7942 69.372 44.3942 68.988 44.1062 68.5C43.8262 68.012 43.6862 67.452 43.6862 66.82C43.6862 66.188 43.8222 65.628 44.0942 65.14C44.3742 64.652 44.7542 64.272 45.2342 64C45.7222 63.72 46.2702 63.58 46.8782 63.58C47.4942 63.58 48.0382 63.716 48.5102 63.988C48.9822 64.26 49.3502 64.644 49.6142 65.14C49.8862 65.628 50.0222 66.2 50.0222 66.856C50.0222 66.904 50.0182 66.96 50.0102 67.024C50.0102 67.088 50.0062 67.148 49.9982 67.204H44.5862V66.376H49.3982L48.9302 66.664C48.9382 66.256 48.8542 65.892 48.6782 65.572C48.5022 65.252 48.2582 65.004 47.9462 64.828C47.6422 64.644 47.2862 64.552 46.8782 64.552C46.4782 64.552 46.1222 64.644 45.8102 64.828C45.4982 65.004 45.2542 65.256 45.0782 65.584C44.9022 65.904 44.8142 66.272 44.8142 66.688V66.88C44.8142 67.304 44.9102 67.684 45.1022 68.02C45.3022 68.348 45.5782 68.604 45.9302 68.788C46.2822 68.972 46.6862 69.064 47.1422 69.064C47.5182 69.064 47.8582 69 48.1622 68.872C48.4742 68.744 48.7462 68.552 48.9782 68.296L49.6142 69.04C49.3262 69.376 48.9662 69.632 48.5342 69.808C48.1102 69.984 47.6342 70.072 47.1062 70.072Z" fill="#F5F7FA"/>
</svg>
