<svg width="57" height="74" viewBox="0 0 57 74" fill="none" xmlns="http://www.w3.org/2000/svg">
<rect width="56.3711" height="56.3711" rx="18" fill="#183347"/>
<path fill-rule="evenodd" clip-rule="evenodd" d="M18.5773 21.779H23.702C24.0607 21.779 24.3426 21.4972 24.3426 21.1385V16.0138C24.3426 15.7576 24.1888 15.527 23.9454 15.4245C23.702 15.322 23.4329 15.3732 23.2536 15.5654L18.1289 20.6901C17.9368 20.8694 17.8855 21.1385 17.988 21.3819C18.0905 21.6253 18.3211 21.779 18.5773 21.779ZM34.5919 36.5119V16.0133C34.5919 15.6546 34.31 15.3727 33.9513 15.3727H26.2643C25.9056 15.3727 25.6238 15.6546 25.6238 16.0133V22.4191C25.6238 22.7779 25.3419 23.0597 24.9832 23.0597H18.5774C18.2187 23.0597 17.9368 23.3416 17.9368 23.7003V36.5119C17.9368 36.8706 18.2187 37.1525 18.5774 37.1525H33.9513C34.31 37.1525 34.5919 36.8706 34.5919 36.5119ZM36.5135 19.2171H37.7947C38.1534 19.2171 38.4353 19.499 38.4353 19.8577V40.3563C38.4353 40.715 38.1534 40.9969 37.7947 40.9969H22.4207C22.062 40.9969 21.7801 40.715 21.7801 40.3563V39.0751C21.7801 38.7164 22.062 38.4345 22.4207 38.4345H35.2323C35.5911 38.4345 35.8729 38.1527 35.8729 37.794V19.8577C35.8729 19.499 36.1548 19.2171 36.5135 19.2171Z" fill="#005BFF"/>
<path d="M6.79042 71V62.6H13.1264V63.62H7.97842V66.02H10.5944C11.5944 66.02 12.3544 66.228 12.8744 66.644C13.3944 67.06 13.6544 67.664 13.6544 68.456C13.6544 69.272 13.3704 69.9 12.8024 70.34C12.2424 70.78 11.4384 71 10.3904 71H6.79042ZM7.97842 70.052H10.3424C11.0384 70.052 11.5624 69.92 11.9144 69.656C12.2744 69.392 12.4544 69 12.4544 68.48C12.4544 67.472 11.7504 66.968 10.3424 66.968H7.97842V70.052ZM15.5357 73.4C15.2317 73.4 14.9357 73.348 14.6477 73.244C14.3597 73.148 14.1117 73.004 13.9037 72.812L14.3957 71.948C14.5557 72.1 14.7317 72.216 14.9237 72.296C15.1157 72.376 15.3197 72.416 15.5357 72.416C15.8157 72.416 16.0477 72.344 16.2317 72.2C16.4157 72.056 16.5877 71.8 16.7477 71.432L17.1437 70.556L17.2637 70.412L19.7597 64.64H20.8877L17.8037 71.636C17.6197 72.084 17.4117 72.436 17.1797 72.692C16.9557 72.948 16.7077 73.128 16.4357 73.232C16.1637 73.344 15.8637 73.4 15.5357 73.4ZM17.0477 71.204L14.1437 64.64H15.3437L17.8157 70.304L17.0477 71.204ZM22.0672 71V64.64H23.2552L25.9912 69.344H25.5112L28.3192 64.64H29.3992V71H28.3552V65.936L28.5472 66.044L25.9792 70.28H25.4752L22.8952 65.96L23.1232 65.912V71H22.0672ZM35.5414 71V69.656L35.4814 69.404V67.112C35.4814 66.624 35.3374 66.248 35.0494 65.984C34.7694 65.712 34.3454 65.576 33.7774 65.576C33.4014 65.576 33.0334 65.64 32.6734 65.768C32.3134 65.888 32.0094 66.052 31.7614 66.26L31.2814 65.396C31.6094 65.132 32.0014 64.932 32.4574 64.796C32.9214 64.652 33.4054 64.58 33.9094 64.58C34.7814 64.58 35.4534 64.792 35.9254 65.216C36.3974 65.64 36.6334 66.288 36.6334 67.16V71H35.5414ZM33.4534 71.072C32.9814 71.072 32.5654 70.992 32.2054 70.832C31.8534 70.672 31.5814 70.452 31.3894 70.172C31.1974 69.884 31.1014 69.56 31.1014 69.2C31.1014 68.856 31.1814 68.544 31.3414 68.264C31.5094 67.984 31.7774 67.76 32.1454 67.592C32.5214 67.424 33.0254 67.34 33.6574 67.34H35.6734V68.168H33.7054C33.1294 68.168 32.7414 68.264 32.5414 68.456C32.3414 68.648 32.2414 68.88 32.2414 69.152C32.2414 69.464 32.3654 69.716 32.6134 69.908C32.8614 70.092 33.2054 70.184 33.6454 70.184C34.0774 70.184 34.4534 70.088 34.7734 69.896C35.1014 69.704 35.3374 69.424 35.4814 69.056L35.7094 69.848C35.5574 70.224 35.2894 70.524 34.9054 70.748C34.5214 70.964 34.0374 71.072 33.4534 71.072ZM38.7078 71V64.64H43.3878V65.648H39.5838L39.8598 65.384V71H38.7078ZM48.4672 71V69.656L48.4072 69.404V67.112C48.4072 66.624 48.2632 66.248 47.9752 65.984C47.6952 65.712 47.2712 65.576 46.7032 65.576C46.3272 65.576 45.9592 65.64 45.5992 65.768C45.2392 65.888 44.9352 66.052 44.6872 66.26L44.2072 65.396C44.5352 65.132 44.9272 64.932 45.3832 64.796C45.8472 64.652 46.3312 64.58 46.8352 64.58C47.7072 64.58 48.3792 64.792 48.8512 65.216C49.3232 65.64 49.5592 66.288 49.5592 67.16V71H48.4672ZM46.3792 71.072C45.9072 71.072 45.4912 70.992 45.1312 70.832C44.7792 70.672 44.5072 70.452 44.3152 70.172C44.1232 69.884 44.0272 69.56 44.0272 69.2C44.0272 68.856 44.1072 68.544 44.2672 68.264C44.4352 67.984 44.7032 67.76 45.0712 67.592C45.4472 67.424 45.9512 67.34 46.5832 67.34H48.5992V68.168H46.6312C46.0552 68.168 45.6672 68.264 45.4672 68.456C45.2672 68.648 45.1672 68.88 45.1672 69.152C45.1672 69.464 45.2912 69.716 45.5392 69.908C45.7872 70.092 46.1312 70.184 46.5712 70.184C47.0032 70.184 47.3792 70.088 47.6992 69.896C48.0272 69.704 48.2632 69.424 48.4072 69.056L48.6352 69.848C48.4832 70.224 48.2152 70.524 47.8312 70.748C47.4472 70.964 46.9632 71.072 46.3792 71.072Z" fill="#F5F7FA"/>
</svg>
