<svg width="57" height="71" viewBox="0 0 57 71" fill="none" xmlns="http://www.w3.org/2000/svg">
<rect width="56.37" height="56.37" rx="18" fill="#183347"/>
<path fill-rule="evenodd" clip-rule="evenodd" d="M30.1074 17.2957H26.2639C25.9052 17.2957 25.6233 17.0139 25.6233 16.6551V15.374C25.6233 15.0153 25.9052 14.7334 26.2639 14.7334H30.1074C30.4661 14.7334 30.748 15.0153 30.748 15.374V16.6551C30.748 17.0139 30.4661 17.2957 30.1074 17.2957ZM29.6462 18.7565L33.7587 22.8691C33.8868 22.9972 33.9509 23.1509 33.9509 23.3303V23.7018C33.9509 24.0606 33.669 24.3424 33.3103 24.3424H23.061C22.7023 24.3424 22.4204 24.0606 22.4204 23.7018V23.3303C22.4204 23.1509 22.4845 22.9972 22.6126 22.8691L26.7123 18.7565C26.8276 18.6284 26.9942 18.5644 27.1607 18.5644H29.1978C29.3643 18.5644 29.5309 18.6412 29.6462 18.7565ZM33.3103 25.6233H23.061C22.7023 25.6233 22.4204 25.9051 22.4204 26.2639V30.1073C22.4204 30.4661 22.7023 30.7479 23.061 30.7479H33.3103C33.669 30.7479 33.9509 30.4661 33.9509 30.1073V26.2639C33.9509 25.9051 33.669 25.6233 33.3103 25.6233ZM23.061 32.0291H33.3103C33.669 32.0291 33.9509 32.3109 33.9509 32.6697V32.9259C33.9509 33.1565 33.8356 33.3743 33.6306 33.4896C31.5295 34.6683 31.5295 37.7046 33.6306 38.8833C33.8228 38.9986 33.9509 39.2164 33.9509 39.447V40.9972C33.9509 41.3559 33.669 41.6378 33.3103 41.6378H23.061C22.7023 41.6378 22.4204 41.3559 22.4204 40.9972V39.447C22.4204 39.2164 22.5485 39.0114 22.7407 38.8961C24.8418 37.7174 24.8418 34.6811 22.7407 33.5024C22.5485 33.3871 22.4204 33.1693 22.4204 32.9387V32.6697C22.4204 32.3109 22.7023 32.0291 23.061 32.0291Z" fill="#005BFF"/>
<path d="M2.90566 70V61.6H10.1417V70H8.96566V62.332L9.25366 62.644H3.79366L4.09366 62.332V70H2.90566ZM11.5131 69.988L11.5851 69.016C11.6411 69.024 11.6931 69.032 11.7411 69.04C11.7891 69.048 11.8331 69.052 11.8731 69.052C12.1291 69.052 12.3291 68.964 12.4731 68.788C12.6251 68.612 12.7371 68.38 12.8091 68.092C12.8811 67.796 12.9331 67.464 12.9651 67.096C12.9971 66.728 13.0211 66.36 13.0371 65.992L13.1451 63.64H18.0291V70H16.8771V64.312L17.1531 64.648H13.8891L14.1531 64.3L14.0691 66.064C14.0451 66.624 14.0011 67.148 13.9371 67.636C13.8731 68.124 13.7731 68.552 13.6371 68.92C13.5091 69.288 13.3291 69.576 13.0971 69.784C12.8731 69.992 12.5811 70.096 12.2211 70.096C12.1171 70.096 12.0051 70.084 11.8851 70.06C11.7731 70.044 11.6491 70.02 11.5131 69.988ZM24.1566 70V68.656L24.0966 68.404V66.112C24.0966 65.624 23.9526 65.248 23.6646 64.984C23.3846 64.712 22.9606 64.576 22.3926 64.576C22.0166 64.576 21.6486 64.64 21.2886 64.768C20.9286 64.888 20.6246 65.052 20.3766 65.26L19.8966 64.396C20.2246 64.132 20.6166 63.932 21.0726 63.796C21.5366 63.652 22.0206 63.58 22.5246 63.58C23.3966 63.58 24.0686 63.792 24.5406 64.216C25.0126 64.64 25.2486 65.288 25.2486 66.16V70H24.1566ZM22.0686 70.072C21.5966 70.072 21.1806 69.992 20.8206 69.832C20.4686 69.672 20.1966 69.452 20.0046 69.172C19.8126 68.884 19.7166 68.56 19.7166 68.2C19.7166 67.856 19.7966 67.544 19.9566 67.264C20.1246 66.984 20.3926 66.76 20.7606 66.592C21.1366 66.424 21.6406 66.34 22.2726 66.34H24.2886V67.168H22.3206C21.7446 67.168 21.3566 67.264 21.1566 67.456C20.9566 67.648 20.8566 67.88 20.8566 68.152C20.8566 68.464 20.9806 68.716 21.2286 68.908C21.4766 69.092 21.8206 69.184 22.2606 69.184C22.6926 69.184 23.0686 69.088 23.3886 68.896C23.7166 68.704 23.9526 68.424 24.0966 68.056L24.3246 68.848C24.1726 69.224 23.9046 69.524 23.5206 69.748C23.1366 69.964 22.6526 70.072 22.0686 70.072ZM30.095 70.072C29.447 70.072 28.867 69.932 28.355 69.652C27.851 69.372 27.455 68.988 27.167 68.5C26.879 68.012 26.735 67.452 26.735 66.82C26.735 66.188 26.879 65.628 27.167 65.14C27.455 64.652 27.851 64.272 28.355 64C28.867 63.72 29.447 63.58 30.095 63.58C30.671 63.58 31.183 63.696 31.631 63.928C32.087 64.152 32.439 64.488 32.687 64.936L31.811 65.5C31.603 65.188 31.347 64.96 31.043 64.816C30.747 64.664 30.427 64.588 30.083 64.588C29.667 64.588 29.295 64.68 28.967 64.864C28.639 65.048 28.379 65.308 28.187 65.644C27.995 65.972 27.899 66.364 27.899 66.82C27.899 67.276 27.995 67.672 28.187 68.008C28.379 68.344 28.639 68.604 28.967 68.788C29.295 68.972 29.667 69.064 30.083 69.064C30.427 69.064 30.747 68.992 31.043 68.848C31.347 68.696 31.603 68.464 31.811 68.152L32.687 68.704C32.439 69.144 32.087 69.484 31.631 69.724C31.183 69.956 30.671 70.072 30.095 70.072ZM35.3565 70V64.348L35.6445 64.648H33.0285V63.64H38.8365V64.648H36.2325L36.5085 64.348V70H35.3565ZM40.0144 70V63.64H41.1664V68.272L45.0664 63.64H46.1104V70H44.9584V65.368L41.0704 70H40.0144ZM52.9545 70L50.4945 66.904L51.4425 66.328L54.3105 70H52.9545ZM48.3465 70V63.64H49.4985V70H48.3465ZM49.1505 67.312V66.328H51.2505V67.312H49.1505ZM51.5385 66.952L50.4705 66.808L52.9065 63.64H54.1425L51.5385 66.952Z" fill="#F5F7FA"/>
</svg>
