<svg width="57" height="71" viewBox="0 0 57 71" fill="none" xmlns="http://www.w3.org/2000/svg">
<rect width="56.3711" height="56.3711" rx="18" fill="#183347"/>
<path d="M16.6058 68.956L16.3298 69.268V61.6H17.5058V69.268L17.2058 68.956H21.2978L20.9978 69.268V61.6H22.1738V70H11.6498V61.6H12.8378V69.268L12.5378 68.956H16.6058ZM24.5945 70V63.64H25.7465V68.272L29.6465 63.64H30.6905V70H29.5385V65.368L25.6505 70H24.5945ZM32.9265 70V63.64H34.0785V66.34H37.7025V63.64H38.8545V70H37.7025V67.336H34.0785V70H32.9265ZM47.3825 70V63.64H48.5345V70H47.3825ZM43.9625 65.8C44.7705 65.808 45.3825 65.992 45.7985 66.352C46.2225 66.712 46.4345 67.22 46.4345 67.876C46.4345 68.564 46.2025 69.096 45.7385 69.472C45.2825 69.84 44.6265 70.02 43.7705 70.012L41.0945 70V63.64H42.2465V65.788L43.9625 65.8ZM43.6865 69.136C44.1985 69.144 44.5905 69.04 44.8625 68.824C45.1345 68.608 45.2705 68.288 45.2705 67.864C45.2705 67.448 45.1345 67.144 44.8625 66.952C44.5985 66.76 44.2065 66.66 43.6865 66.652L42.2465 66.628V69.124L43.6865 69.136Z" fill="#F5F7FA"/>
<path d="M42 27.786C42 24.295 41.2705 21.1412 40.0448 18.7102C38.7771 16.102 36.9839 14.2683 34.9317 13.755C33.9119 13.5002 30.7488 13 28.0558 13C25.382 13 22.8458 13.2822 21.2716 13.7547C17.1261 14.9995 14 21.092 14 27.9267C14 35.065 16.4819 39.915 21.1771 41.9531C22.7548 42.6378 25.1338 43 28.0562 43C31.3927 43 34.4003 42.1411 34.9702 41.969C39.0425 40.7373 41.9948 34.8314 41.9948 27.9267C41.9948 27.9252 41.9948 27.9238 41.9948 27.9223C41.9948 27.8767 42 27.8317 42 27.786ZM33.5543 40.4103C29.8396 40.4103 26.701 34.629 26.701 27.786C26.701 20.9426 29.8396 15.1613 33.5543 15.1613C36.2159 15.1613 38.5812 18.1297 39.7088 22.3297C40.1542 24.0427 40.4055 25.9482 40.4057 27.9244C40.3635 34.7065 37.2439 40.4103 33.5543 40.4103ZM21.8791 40.6845C17.7686 38.9002 15.5957 34.4886 15.5957 27.9267C15.5957 21.0564 18.7421 16.006 21.7845 15.093C23.1814 14.6732 25.5845 14.4128 28.0562 14.4128C28.9183 14.4128 29.8276 14.4683 30.6893 14.5491C27.4028 16.4589 25.1054 21.5935 25.1054 27.786C25.1054 34.3479 27.6856 39.7211 31.2886 41.3283C30.3207 41.4759 29.2092 41.5872 28.0562 41.5872C24.6699 41.5872 22.8281 41.0963 21.8791 40.6845Z" fill="#005BFF"/>
<path d="M34 21C31.7195 21 30 24.0092 30 28C30 31.9908 31.7195 35 34 35C36.2805 35 38 31.9908 38 28C38 24.0092 36.2805 21 34 21ZM34 33.5263C32.9977 33.5263 31.6 31.424 31.6 28C31.6 24.5759 32.9977 22.4737 34 22.4737C35.0023 22.4737 36.4 24.5759 36.4 28C36.4 31.424 35.0023 33.5263 34 33.5263Z" fill="#005BFF"/>
</svg>
