<svg width="34" height="34" viewBox="0 0 34 34" fill="none" xmlns="http://www.w3.org/2000/svg">
<rect x="0.514839" y="1.41804" width="32.0671" height="32.0671" rx="11.7432" fill="#444444" stroke="#444444" stroke-width="1.02968"/>
<path d="M16.5462 22.8682C15.8995 22.8682 15.3752 22.344 15.3752 21.6973V12.2687C15.3752 11.622 15.8995 11.0977 16.5462 11.0977V11.0977C17.1929 11.0977 17.7172 11.622 17.7172 12.2687V21.6973C17.7172 22.344 17.1929 22.8682 16.5462 22.8682V22.8682ZM11.8362 18.1496C11.1895 18.1496 10.6653 17.6253 10.6653 16.9786V16.9786C10.6653 16.3319 11.1895 15.8077 11.8362 15.8077H21.2649C21.9116 15.8077 22.4358 16.3319 22.4358 16.9786V16.9786C22.4358 17.6253 21.9116 18.1496 21.2649 18.1496H11.8362Z" fill="#8E8E8E"/>
</svg>
