<svg width="32" height="32" viewBox="0 0 32 32" fill="none" xmlns="http://www.w3.org/2000/svg">
<rect x="0.514401" y="0.514401" width="30.9712" height="30.9712" rx="11.7437" fill="#005BFF"/>
<rect x="0.514401" y="0.514401" width="30.9712" height="30.9712" rx="11.7437" stroke="#005BFF" stroke-width="1.0288"/>
<path d="M10.2571 21.7429C10.4286 21.9143 10.6 22 10.8571 22C11.1143 22 11.2857 21.9143 11.4571 21.7429L16 17.2L20.5429 21.7429C20.7143 21.9143 20.9714 22 21.1429 22C21.3143 22 21.5714 21.9143 21.7429 21.7429C22.0857 21.4 22.0857 20.8857 21.7429 20.5429L17.2 16L21.7429 11.4571C22.0857 11.1143 22.0857 10.6 21.7429 10.2571C21.4 9.91429 20.8857 9.91429 20.5429 10.2571L16 14.8L11.4571 10.2571C11.1143 9.91429 10.6 9.91429 10.2571 10.2571C9.91429 10.6 9.91429 11.1143 10.2571 11.4571L14.8 16L10.2571 20.5429C9.91429 20.8857 9.91429 21.4 10.2571 21.7429Z" fill="#F5F7FA"/>
</svg>
