<svg width="75" height="20" viewBox="0 0 75 20" fill="none" xmlns="http://www.w3.org/2000/svg">
<rect width="75" height="20" rx="8" fill="#FE1356"/>
<path d="M10.7015 13.172L11.2055 12.032C11.5655 12.28 11.9575 12.472 12.3815 12.608C12.8135 12.736 13.2415 12.804 13.6655 12.812C14.0895 12.82 14.4735 12.772 14.8175 12.668C15.1695 12.564 15.4495 12.408 15.6575 12.2C15.8655 11.992 15.9695 11.732 15.9695 11.42C15.9695 11.044 15.8135 10.764 15.5015 10.58C15.1975 10.388 14.7815 10.292 14.2535 10.292H12.2975V9.068H14.1335C14.6055 9.068 14.9695 8.972 15.2255 8.78C15.4895 8.588 15.6215 8.328 15.6215 8C15.6215 7.728 15.5335 7.504 15.3575 7.328C15.1895 7.152 14.9575 7.02 14.6615 6.932C14.3735 6.844 14.0455 6.804 13.6775 6.812C13.3175 6.812 12.9415 6.868 12.5495 6.98C12.1575 7.084 11.7855 7.24 11.4335 7.448L10.9415 6.188C11.4695 5.908 12.0215 5.712 12.5975 5.6C13.1815 5.488 13.7455 5.456 14.2895 5.504C14.8335 5.552 15.3215 5.676 15.7535 5.876C16.1935 6.076 16.5455 6.34 16.8095 6.668C17.0735 6.988 17.2055 7.368 17.2055 7.808C17.2055 8.208 17.0975 8.564 16.8815 8.876C16.6735 9.18 16.3855 9.416 16.0175 9.584C15.6495 9.752 15.2215 9.836 14.7335 9.836L14.7935 9.452C15.3455 9.452 15.8255 9.548 16.2335 9.74C16.6495 9.924 16.9695 10.18 17.1935 10.508C17.4255 10.836 17.5415 11.216 17.5415 11.648C17.5415 12.056 17.4375 12.42 17.2295 12.74C17.0215 13.052 16.7375 13.316 16.3775 13.532C16.0175 13.74 15.6055 13.896 15.1415 14C14.6775 14.096 14.1895 14.132 13.6775 14.108C13.1655 14.084 12.6535 13.996 12.1415 13.844C11.6375 13.692 11.1575 13.468 10.7015 13.172ZM23.0425 14V12.704L22.9585 12.428V10.16C22.9585 9.72 22.8265 9.38 22.5625 9.14C22.2985 8.892 21.8985 8.768 21.3625 8.768C21.0025 8.768 20.6465 8.824 20.2945 8.936C19.9505 9.048 19.6585 9.204 19.4185 9.404L18.8305 8.312C19.1745 8.048 19.5825 7.852 20.0545 7.724C20.5345 7.588 21.0305 7.52 21.5425 7.52C22.4705 7.52 23.1865 7.744 23.6905 8.192C24.2025 8.632 24.4585 9.316 24.4585 10.244V14H23.0425ZM21.0265 14.084C20.5465 14.084 20.1265 14.004 19.7665 13.844C19.4065 13.676 19.1265 13.448 18.9265 13.16C18.7345 12.864 18.6385 12.532 18.6385 12.164C18.6385 11.804 18.7225 11.48 18.8905 11.192C19.0665 10.904 19.3505 10.676 19.7425 10.508C20.1345 10.34 20.6545 10.256 21.3025 10.256H23.1625V11.252H21.4105C20.8985 11.252 20.5545 11.336 20.3785 11.504C20.2025 11.664 20.1145 11.864 20.1145 12.104C20.1145 12.376 20.2225 12.592 20.4385 12.752C20.6545 12.912 20.9545 12.992 21.3385 12.992C21.7065 12.992 22.0345 12.908 22.3225 12.74C22.6185 12.572 22.8305 12.324 22.9585 11.996L23.2105 12.896C23.0665 13.272 22.8065 13.564 22.4305 13.772C22.0625 13.98 21.5945 14.084 21.0265 14.084ZM30.9106 14L28.5946 10.928L29.8186 10.172L32.6746 14H30.9106ZM26.3146 14V7.592H27.8146V14H26.3146ZM27.3706 11.432V10.184H29.5426V11.432H27.3706ZM29.9626 10.976L28.5586 10.808L30.9106 7.592H32.5186L29.9626 10.976ZM37.2846 14.084C36.7646 14.084 36.2886 13.964 35.8566 13.724C35.4326 13.484 35.0926 13.124 34.8366 12.644C34.5886 12.156 34.4646 11.54 34.4646 10.796C34.4646 10.044 34.5846 9.428 34.8246 8.948C35.0726 8.468 35.4086 8.112 35.8326 7.88C36.2566 7.64 36.7406 7.52 37.2846 7.52C37.9166 7.52 38.4726 7.656 38.9526 7.928C39.4406 8.2 39.8246 8.58 40.1046 9.068C40.3926 9.556 40.5366 10.132 40.5366 10.796C40.5366 11.46 40.3926 12.04 40.1046 12.536C39.8246 13.024 39.4406 13.404 38.9526 13.676C38.4726 13.948 37.9166 14.084 37.2846 14.084ZM33.7326 16.328V7.592H35.1606V9.104L35.1126 10.808L35.2326 12.512V16.328H33.7326ZM37.1166 12.8C37.4766 12.8 37.7966 12.72 38.0766 12.56C38.3646 12.4 38.5926 12.168 38.7606 11.864C38.9286 11.56 39.0126 11.204 39.0126 10.796C39.0126 10.38 38.9286 10.024 38.7606 9.728C38.5926 9.424 38.3646 9.192 38.0766 9.032C37.7966 8.872 37.4766 8.792 37.1166 8.792C36.7566 8.792 36.4326 8.872 36.1446 9.032C35.8566 9.192 35.6286 9.424 35.4606 9.728C35.2926 10.024 35.2086 10.38 35.2086 10.796C35.2086 11.204 35.2926 11.56 35.4606 11.864C35.6286 12.168 35.8566 12.4 36.1446 12.56C36.4326 12.72 36.7566 12.8 37.1166 12.8ZM48.4975 14V7.592H49.9975V14H48.4975ZM45.1495 9.704C45.9735 9.704 46.5975 9.888 47.0215 10.256C47.4535 10.624 47.6695 11.144 47.6695 11.816C47.6695 12.512 47.4295 13.056 46.9495 13.448C46.4775 13.832 45.8055 14.02 44.9335 14.012L42.0295 14V7.592H43.5295V9.692L45.1495 9.704ZM44.8015 12.908C45.2415 12.916 45.5775 12.824 45.8095 12.632C46.0415 12.44 46.1575 12.16 46.1575 11.792C46.1575 11.424 46.0415 11.16 45.8095 11C45.5855 10.832 45.2495 10.744 44.8015 10.736L43.5295 10.724V12.896L44.8015 12.908ZM53.3459 14V8.504L53.6939 8.864H51.0899V7.592H57.0899V8.864H54.4979L54.8459 8.504V14H53.3459ZM60.7527 14.084C60.0967 14.084 59.5127 13.944 59.0007 13.664C58.4887 13.376 58.0847 12.984 57.7887 12.488C57.4927 11.992 57.3447 11.428 57.3447 10.796C57.3447 10.156 57.4927 9.592 57.7887 9.104C58.0847 8.608 58.4887 8.22 59.0007 7.94C59.5127 7.66 60.0967 7.52 60.7527 7.52C61.4167 7.52 62.0047 7.66 62.5167 7.94C63.0367 8.22 63.4407 8.604 63.7287 9.092C64.0247 9.58 64.1727 10.148 64.1727 10.796C64.1727 11.428 64.0247 11.992 63.7287 12.488C63.4407 12.984 63.0367 13.376 62.5167 13.664C62.0047 13.944 61.4167 14.084 60.7527 14.084ZM60.7527 12.8C61.1207 12.8 61.4487 12.72 61.7367 12.56C62.0247 12.4 62.2487 12.168 62.4087 11.864C62.5767 11.56 62.6607 11.204 62.6607 10.796C62.6607 10.38 62.5767 10.024 62.4087 9.728C62.2487 9.424 62.0247 9.192 61.7367 9.032C61.4487 8.872 61.1247 8.792 60.7647 8.792C60.3967 8.792 60.0687 8.872 59.7807 9.032C59.5007 9.192 59.2767 9.424 59.1087 9.728C58.9407 10.024 58.8567 10.38 58.8567 10.796C58.8567 11.204 58.9407 11.56 59.1087 11.864C59.2767 12.168 59.5007 12.4 59.7807 12.56C60.0687 12.72 60.3927 12.8 60.7527 12.8Z" fill="#F5F7FA"/>
</svg>
