<svg width="72" height="34" viewBox="0 0 72 34" fill="none" xmlns="http://www.w3.org/2000/svg">
<rect x="1.19189" y="1.4176" width="69.4359" height="31.8929" rx="11.7437" fill="#005BFF"/>
<rect x="1.19189" y="1.4176" width="69.4359" height="31.8929" rx="11.7437" stroke="#005BFF" stroke-width="1.0288"/>
<path d="M15.3251 23.076V12.601H19.1612C19.9045 12.601 20.52 12.7237 21.0076 12.9692C21.4952 13.2113 21.8601 13.5404 22.1022 13.9564C22.3443 14.369 22.4653 14.8344 22.4653 15.3527C22.4653 15.7892 22.3852 16.1575 22.225 16.4575C22.0647 16.7542 21.8499 16.9929 21.5805 17.1736C21.3145 17.3509 21.0213 17.4805 20.7007 17.5623V17.6646C21.0486 17.6817 21.3878 17.7942 21.7186 18.0022C22.0528 18.2068 22.329 18.4983 22.5472 18.8768C22.7654 19.2553 22.8745 19.7156 22.8745 20.2578C22.8745 20.7932 22.7484 21.2739 22.496 21.7002C22.2471 22.123 21.8618 22.4589 21.3401 22.7078C20.8184 22.9533 20.1518 23.076 19.3402 23.076H15.3251ZM16.9056 21.7206H19.1868C19.9438 21.7206 20.4859 21.574 20.8133 21.2808C21.1406 20.9875 21.3043 20.621 21.3043 20.1811C21.3043 19.8503 21.2208 19.5469 21.0537 19.2707C20.8866 18.9945 20.6479 18.7745 20.3376 18.6108C20.0307 18.4472 19.6659 18.3653 19.243 18.3653H16.9056V21.7206ZM16.9056 17.1327H19.0231C19.3777 17.1327 19.6965 17.0645 19.9796 16.9281C20.266 16.7917 20.4927 16.6007 20.6598 16.3552C20.8303 16.1063 20.9156 15.8131 20.9156 15.4755C20.9156 15.0424 20.7638 14.6793 20.4604 14.386C20.1569 14.0928 19.6914 13.9462 19.064 13.9462H16.9056V17.1327ZM27.9356 23.2346C27.1991 23.2346 26.5563 23.0658 26.0073 22.7282C25.4583 22.3907 25.0321 21.9184 24.7286 21.3114C24.4252 20.7045 24.2734 19.9952 24.2734 19.1837C24.2734 18.3687 24.4252 17.6561 24.7286 17.0457C25.0321 16.4354 25.4583 15.9614 26.0073 15.6238C26.5563 15.2862 27.1991 15.1174 27.9356 15.1174C28.6721 15.1174 29.3149 15.2862 29.8639 15.6238C30.4129 15.9614 30.8391 16.4354 31.1426 17.0457C31.4461 17.6561 31.5978 18.3687 31.5978 19.1837C31.5978 19.9952 31.4461 20.7045 31.1426 21.3114C30.8391 21.9184 30.4129 22.3907 29.8639 22.7282C29.3149 23.0658 28.6721 23.2346 27.9356 23.2346ZM27.9407 21.9508C28.4181 21.9508 28.8136 21.8246 29.1274 21.5723C29.4411 21.32 29.6729 20.9841 29.823 20.5647C29.9764 20.1453 30.0531 19.6832 30.0531 19.1786C30.0531 18.6773 29.9764 18.217 29.823 17.7976C29.6729 17.3748 29.4411 17.0355 29.1274 16.7798C28.8136 16.524 28.4181 16.3961 27.9407 16.3961C27.4599 16.3961 27.061 16.524 26.7439 16.7798C26.4302 17.0355 26.1966 17.3748 26.0431 17.7976C25.8931 18.217 25.8181 18.6773 25.8181 19.1786C25.8181 19.6832 25.8931 20.1453 26.0431 20.5647C26.1966 20.9841 26.4302 21.32 26.7439 21.5723C27.061 21.8246 27.4599 21.9508 27.9407 21.9508ZM34.8035 20.933L38.2662 15.2197H39.9131V23.076H38.4145V17.3577L34.9672 23.076H33.3049V15.2197H34.8035V20.933ZM37.6115 12.5601H38.8697C38.8697 13.1363 38.6651 13.6052 38.256 13.9666C37.8502 14.3247 37.3012 14.5037 36.609 14.5037C35.9202 14.5037 35.3729 14.3247 34.9672 13.9666C34.5614 13.6052 34.3585 13.1363 34.3585 12.5601H35.6116C35.6116 12.8158 35.6866 13.0426 35.8367 13.2403C35.9867 13.4347 36.2441 13.5319 36.609 13.5319C36.967 13.5319 37.2228 13.4347 37.3762 13.2403C37.5331 13.046 37.6115 12.8192 37.6115 12.5601ZM40.9949 16.5394V15.2197H47.6237V16.5394H45.0612V23.076H43.5677V16.5394H40.9949ZM50.7399 20.933L54.2026 15.2197H55.8495V23.076H54.3509V17.3577L50.9035 23.076H49.2412V15.2197H50.7399V20.933Z" fill="#F5F7FA"/>
</svg>
