<svg width="71" height="34" viewBox="0 0 71 34" fill="none" xmlns="http://www.w3.org/2000/svg">
<rect x="1.19177" y="1.4176" width="68.4359" height="31.8929" rx="11.7437" stroke="#444444" stroke-width="1.0288"/>
<path d="M15.377 23.076V12.601H19.2131C19.9564 12.601 20.5719 12.7237 21.0595 12.9692C21.5471 13.2113 21.912 13.5404 22.1541 13.9564C22.3962 14.369 22.5172 14.8344 22.5172 15.3527C22.5172 15.7892 22.4371 16.1575 22.2768 16.4575C22.1166 16.7542 21.9018 16.9929 21.6324 17.1736C21.3664 17.3509 21.0732 17.4805 20.7526 17.5623V17.6646C21.1004 17.6817 21.4397 17.7942 21.7705 18.0022C22.1046 18.2068 22.3808 18.4983 22.5991 18.8768C22.8173 19.2553 22.9264 19.7156 22.9264 20.2578C22.9264 20.7932 22.8002 21.2739 22.5479 21.7002C22.299 22.123 21.9137 22.4589 21.392 22.7078C20.8703 22.9533 20.2036 23.076 19.3921 23.076H15.377ZM16.9575 21.7206H19.2387C19.9956 21.7206 20.5378 21.574 20.8652 21.2808C21.1925 20.9875 21.3562 20.621 21.3562 20.1811C21.3562 19.8503 21.2726 19.5469 21.1055 19.2707C20.9385 18.9945 20.6998 18.7745 20.3895 18.6108C20.0826 18.4472 19.7177 18.3653 19.2949 18.3653H16.9575V21.7206ZM16.9575 17.1327H19.075C19.4296 17.1327 19.7484 17.0645 20.0314 16.9281C20.3179 16.7917 20.5446 16.6007 20.7117 16.3552C20.8822 16.1063 20.9675 15.8131 20.9675 15.4755C20.9675 15.0424 20.8157 14.6793 20.5122 14.386C20.2088 14.0928 19.7433 13.9462 19.1159 13.9462H16.9575V17.1327ZM27.9875 23.2346C27.251 23.2346 26.6082 23.0658 26.0592 22.7282C25.5102 22.3907 25.084 21.9184 24.7805 21.3114C24.477 20.7045 24.3253 19.9952 24.3253 19.1837C24.3253 18.3687 24.477 17.6561 24.7805 17.0457C25.084 16.4354 25.5102 15.9614 26.0592 15.6238C26.6082 15.2862 27.251 15.1174 27.9875 15.1174C28.724 15.1174 29.3668 15.2862 29.9158 15.6238C30.4647 15.9614 30.891 16.4354 31.1945 17.0457C31.4979 17.6561 31.6497 18.3687 31.6497 19.1837C31.6497 19.9952 31.4979 20.7045 31.1945 21.3114C30.891 21.9184 30.4647 22.3907 29.9158 22.7282C29.3668 23.0658 28.724 23.2346 27.9875 23.2346ZM27.9926 21.9508C28.47 21.9508 28.8655 21.8246 29.1792 21.5723C29.4929 21.32 29.7248 20.9841 29.8748 20.5647C30.0283 20.1453 30.105 19.6832 30.105 19.1786C30.105 18.6773 30.0283 18.217 29.8748 17.7976C29.7248 17.3748 29.4929 17.0355 29.1792 16.7798C28.8655 16.524 28.47 16.3961 27.9926 16.3961C27.5118 16.3961 27.1129 16.524 26.7957 16.7798C26.482 17.0355 26.2485 17.3748 26.095 17.7976C25.945 18.217 25.87 18.6773 25.87 19.1786C25.87 19.6832 25.945 20.1453 26.095 20.5647C26.2485 20.9841 26.482 21.32 26.7957 21.5723C27.1129 21.8246 27.5118 21.9508 27.9926 21.9508ZM34.8554 20.933L38.3181 15.2197H39.965V23.076H38.4664V17.3577L35.019 23.076H33.3567V15.2197H34.8554V20.933ZM37.6634 12.5601H38.9216C38.9216 13.1363 38.717 13.6052 38.3078 13.9666C37.9021 14.3247 37.3531 14.5037 36.6609 14.5037C35.9721 14.5037 35.4248 14.3247 35.019 13.9666C34.6133 13.6052 34.4104 13.1363 34.4104 12.5601H35.6635C35.6635 12.8158 35.7385 13.0426 35.8885 13.2403C36.0386 13.4347 36.296 13.5319 36.6609 13.5319C37.0189 13.5319 37.2747 13.4347 37.4281 13.2403C37.585 13.046 37.6634 12.8192 37.6634 12.5601ZM41.0468 16.5394V15.2197H47.6756V16.5394H45.1131V23.076H43.6195V16.5394H41.0468ZM50.7917 20.933L54.2544 15.2197H55.9014V23.076H54.4028V17.3577L50.9554 23.076H49.2931V15.2197H50.7917V20.933Z" fill="#444444"/>
</svg>
