<svg width="60" height="24" viewBox="0 0 60 24" fill="none" xmlns="http://www.w3.org/2000/svg">
<path d="M6.29524 11.4792C7.10799 11.4792 7.8138 11.3829 8.41267 11.1904C9.02223 10.9979 9.5195 10.7344 9.90449 10.4001C10.3002 10.0556 10.5943 9.65025 10.7867 9.18415C10.9792 8.71805 11.0755 8.20635 11.0755 7.64905C11.0755 6.53446 10.6852 5.67825 9.90449 5.08042C9.13452 4.48259 7.95282 4.18368 6.35941 4.18368H3.60034V11.4792H6.29524ZM17.4288 23H13.4977C12.7598 23 12.2251 22.7265 11.8936 22.1793L7.01709 15.1422C6.83529 14.8787 6.63211 14.6912 6.40753 14.5798C6.19365 14.4683 5.87283 14.4126 5.44507 14.4126H3.60034V23H0V1.13037H6.29524C7.86727 1.13037 9.27888 1.17934 10.4018 1.49346C11.5353 1.79744 12.4604 2.22808 13.1769 2.78537C13.9041 3.34267 14.4388 4.01142 14.781 4.79164C15.1232 5.56172 15.2943 6.41286 15.2943 7.34507C15.2943 8.08475 15.1767 8.78391 14.9414 9.44253C14.7168 10.1012 14.3853 10.699 13.9468 11.236C13.5191 11.773 12.9844 12.2442 12.3427 12.6495C11.7118 13.0548 10.9899 13.374 10.1772 13.6071C10.4552 13.759 10.7119 13.9414 10.9472 14.1542C11.1824 14.3569 11.3963 14.6001 11.5888 14.8838L17.4288 23Z" fill="#005BFF"/>
<path d="M22.7019 3.80829V10.5031H33.0003V13.181H22.6103V20.3221H33.9154V23H18.3709V1.13037H33.0003V3.80829H22.7019Z" fill="#005BFF"/>
<path d="M15.5844 10.0057L15.5848 10.0059C16.3711 10.4144 17.2583 10.6184 18.246 10.6184C19.0945 10.6184 19.8614 10.4624 20.5464 10.1499L20.5468 10.1498C21.2322 9.82505 21.7721 9.3557 22.1659 8.74185L22.1798 8.72022L22.1582 8.70631L21.1552 8.06082L21.1349 8.0477L21.1205 8.06728C20.7824 8.53003 20.3633 8.87375 19.8629 9.09895C19.3618 9.32447 18.8166 9.43736 18.2271 9.43736C17.5244 9.43736 16.8916 9.2888 16.328 8.99217C15.7643 8.68356 15.3199 8.25649 14.9943 7.71067C14.669 7.16539 14.5059 6.5246 14.5059 5.78739C14.5059 5.05017 14.669 4.40938 14.9943 3.8641C15.3199 3.31831 15.7642 2.89727 16.3278 2.60064L16.3278 2.60064L16.3281 2.60044C16.8917 2.29191 17.5245 2.13741 18.2271 2.13741C18.8166 2.13741 19.3618 2.2503 19.8629 2.47582C20.3631 2.70095 20.7822 3.05051 21.1204 3.52517L21.1346 3.54516L21.1552 3.53188L22.1582 2.88639L22.1796 2.8726L22.1661 2.85105C21.7722 2.22513 21.2322 1.75561 20.5464 1.44278C19.8614 1.13027 19.0945 0.974267 18.246 0.974267C17.2583 0.974267 16.3711 1.17826 15.5848 1.58679L15.5847 1.58687C14.8112 1.99537 14.2021 2.56032 13.7581 3.28159C13.3137 4.00333 13.0919 4.83889 13.0919 5.78739C13.0919 6.72401 13.3138 7.55947 13.758 8.29303L13.7581 8.29319C14.2021 9.01438 14.811 9.58525 15.5844 10.0057ZM23.3596 13.8803L23.3598 13.8804C23.7914 14.0248 24.2421 14.0969 24.7115 14.0969C25.1936 14.0969 25.632 14.0188 26.0265 13.8621C26.4218 13.717 26.7846 13.4635 27.1148 13.1026C27.4578 12.7413 27.7683 12.2547 28.0465 11.6435C28.0466 11.6434 28.0466 11.6434 28.0466 11.6433L33.0234 1.10064L33.0407 1.06392H33.0001H31.6755H31.6591L31.6522 1.07874L27.9305 9.02929L24.205 1.07873L24.198 1.06392H24.1817H22.7813H22.7407L22.7581 1.10065L27.1938 10.479L26.7701 11.3881C26.77 11.3882 26.77 11.3883 26.7699 11.3884C26.4807 11.9723 26.174 12.3742 25.8512 12.5977L25.8512 12.5976L25.8503 12.5983C25.5399 12.8336 25.1671 12.9517 24.7305 12.9517C24.3677 12.9517 24.037 12.8865 23.7378 12.7566L23.7373 12.7564C23.4501 12.6381 23.1813 12.4664 22.931 12.2411L22.9087 12.221L22.8923 12.2461L22.2678 13.1964L22.256 13.2144L22.2716 13.2292C22.5772 13.5188 22.94 13.7358 23.3596 13.8803ZM36.0789 10.0057L36.0793 10.0059C36.8656 10.4144 37.7528 10.6184 38.7405 10.6184C39.589 10.6184 40.3559 10.4624 41.0409 10.1499L41.0413 10.1498C41.7267 9.82505 42.2666 9.3557 42.6604 8.74185L42.6743 8.72022L42.6527 8.70631L41.6498 8.06082L41.6294 8.0477L41.615 8.06728C41.2769 8.53003 40.8578 8.87375 40.3574 9.09895C39.8563 9.32447 39.3111 9.43736 38.7216 9.43736C38.0189 9.43736 37.3861 9.28881 36.8225 8.99218C36.2588 8.68358 35.8144 8.2565 35.4888 7.71067C35.1635 7.16539 35.0004 6.5246 35.0004 5.78739C35.0004 5.05017 35.1635 4.40938 35.4888 3.8641C35.8144 3.31831 36.2587 2.89727 36.8223 2.60064L36.8226 2.60044C37.3862 2.29191 38.019 2.13741 38.7216 2.13741C39.3111 2.13741 39.8563 2.2503 40.3574 2.47582C40.8576 2.70095 41.2767 3.05051 41.6149 3.52517L41.6291 3.54516L41.6498 3.53188L42.6527 2.88639L42.6741 2.8726L42.6606 2.85105C42.2667 2.22513 41.7267 1.75561 41.0409 1.44278C40.3559 1.13027 39.589 0.974267 38.7405 0.974267C37.7528 0.974267 36.8656 1.17826 36.0793 1.58679L36.0792 1.58687C35.3057 1.99537 34.6966 2.56032 34.2526 3.28159C33.8083 4.00333 33.5864 4.83889 33.5864 5.78739C33.5864 6.72401 33.8083 7.55947 34.2525 8.29303L34.2526 8.29319C34.6966 9.01438 35.3055 9.58525 36.0789 10.0057ZM45.1046 10.503V10.5288H45.1304H46.4739H46.4997V10.503V1.08965V1.06392L46.4739 1.06392L45.1304 1.06392L45.1046 1.06392V1.08965V10.503ZM51.6952 10.0058L51.6955 10.0059C52.4819 10.4145 53.3945 10.6184 54.4324 10.6184C55.23 10.6184 55.9587 10.4865 56.6181 10.2221C57.2902 9.95779 57.8488 9.57302 58.2932 9.06769L58.3085 9.05033L58.2928 9.0333L57.5359 8.2085L57.5168 8.1877L57.4979 8.20864C57.1221 8.624 56.6713 8.93248 56.1452 9.13425L56.145 9.13433C55.631 9.33626 55.0729 9.43736 54.4702 9.43736C53.7042 9.43736 53.0207 9.28867 52.4192 8.99192C51.8303 8.68317 51.3671 8.26198 51.0291 7.7283C50.7608 7.27834 50.6029 6.77159 50.5559 6.20758H58.8794H58.9052V6.18185V6.18143V6.18101V6.18059V6.18017V6.17975V6.17933V6.17891V6.17849V6.17808V6.17766V6.17724V6.17682V6.1764V6.17598V6.17556V6.17515V6.17473V6.17431V6.17389V6.17347V6.17306V6.17264V6.17222V6.17181V6.17139V6.17097V6.17056V6.17014V6.16972V6.16931V6.16889V6.16847V6.16806V6.16764V6.16723V6.16681V6.1664V6.16598V6.16557V6.16515V6.16474V6.16432V6.16391V6.16349V6.16308V6.16267V6.16225V6.16184V6.16142V6.16101V6.1606V6.16018V6.15977V6.15936V6.15895V6.15853V6.15812V6.15771V6.1573V6.15688V6.15647V6.15606V6.15565V6.15524V6.15483V6.15441V6.154V6.15359V6.15318V6.15277V6.15236V6.15195V6.15154V6.15113V6.15072V6.15031V6.1499V6.14949V6.14908V6.14867V6.14826V6.14785V6.14744V6.14703V6.14663V6.14622V6.14581V6.1454V6.14499V6.14458V6.14418V6.14377V6.14336V6.14295V6.14255V6.14214V6.14173V6.14132V6.14092V6.14051V6.14011V6.1397V6.13929V6.13889V6.13848V6.13807V6.13767V6.13726V6.13686V6.13645V6.13605V6.13564V6.13524V6.13483V6.13443V6.13402V6.13362V6.13322V6.13281V6.13241V6.132V6.1316V6.1312V6.13079V6.13039V6.12999V6.12958V6.12918V6.12878V6.12838V6.12797V6.12757V6.12717V6.12677V6.12637V6.12596V6.12556V6.12516V6.12476V6.12436V6.12396V6.12356V6.12316V6.12276V6.12235V6.12195V6.12155V6.12115V6.12075V6.12035V6.11996V6.11956V6.11916V6.11876V6.11836V6.11796V6.11756V6.11716V6.11676V6.11636V6.11597V6.11557V6.11517V6.11477V6.11437V6.11398V6.11358V6.11318V6.11278V6.11239V6.11199V6.11159V6.1112V6.1108V6.1104V6.11001V6.10961V6.10922V6.10882V6.10842V6.10803V6.10763V6.10724V6.10684V6.10645V6.10605V6.10566V6.10526V6.10487V6.10448V6.10408V6.10369V6.10329V6.1029V6.10251V6.10211V6.10172V6.10133V6.10093V6.10054V6.10015V6.09975V6.09936V6.09897V6.09858V6.09819V6.09779V6.0974V6.09701V6.09662V6.09623V6.09583V6.09544V6.09505V6.09466V6.09427V6.09388V6.09349V6.0931V6.09271V6.09232V6.09193V6.09154V6.09115V6.09076V6.09037V6.08998V6.08959V6.0892V6.08881V6.08843V6.08804V6.08765V6.08726V6.08687V6.08648V6.0861V6.08571V6.08532V6.08493V6.08455V6.08416V6.08377V6.08339V6.083V6.08261V6.08223V6.08184V6.08145V6.08107V6.08068V6.08029V6.07991V6.07952V6.07914V6.07875V6.07837V6.07798V6.0776V6.07721V6.07683V6.07644V6.07606V6.07568V6.07529V6.07491V6.07452V6.07414V6.07376V6.07337V6.07299V6.07261V6.07222V6.07184V6.07146V6.07108V6.07069V6.07031V6.06993V6.06955V6.06917V6.06878V6.0684V6.06802V6.06764V6.06726V6.06688V6.0665V6.06611V6.06573V6.06535V6.06497V6.06459V6.06421V6.06383V6.06345V6.06307V6.06269V6.06231V6.06194V6.06156V6.06118V6.0608V6.06042V6.06004V6.05966V6.05928V6.05891V6.05853V6.05815V6.05777V6.05739V6.05702V6.05664V6.05626V6.05589V6.05551V6.05513V6.05476V6.05438V6.054V6.05363V6.05325V6.05287V6.0525V6.05212V6.05175V6.05137V6.051V6.05062V6.05025V6.04987V6.0495V6.04912V6.04875V6.04837V6.048V6.04762V6.04725V6.04688V6.0465V6.04613V6.04576V6.04538V6.04501V6.04464V6.04426V6.04389V6.04352V6.04315V6.04277V6.0424V6.04203V6.04166V6.04129V6.04092V6.04054V6.04017V6.0398V6.03943V6.03906V6.03869V6.03832V6.03795V6.03758V6.03721V6.03684V6.03647V6.0361V6.03573V6.03536V6.03499V6.03462V6.03425V6.03388V6.03351V6.03314V6.03277V6.03241V6.03204V6.03167V6.0313V6.03093V6.03057V6.0302V6.02983V6.02946V6.0291V6.02873V6.02836V6.02799V6.02763V6.02726V6.0269V6.02653V6.02616V6.0258V6.02543V6.02506V6.0247V6.02433V6.02397V6.0236V6.02324V6.02287V6.02251V6.02214V6.02178V6.02142V6.02105V6.02069V6.02032V6.01996V6.0196V6.01923V6.01887V6.01851V6.01814V6.01778V6.01742V6.01705V6.01669V6.01633V6.01597V6.0156V6.01524V6.01488V6.01452V6.01416V6.0138V6.01343V6.01307V6.01271V6.01235V6.01199V6.01163V6.01127V6.01091V6.01055V6.01019V6.00983V6.00947V6.00911V6.00875V6.00839V6.00803V6.00767V6.00731V6.00695V6.00659V6.00624V6.00588V6.00552V6.00516V6.0048V6.00444V6.00409V6.00373V6.00337V6.00301V6.00266V6.0023V6.00194V6.00159V6.00123V6.00087V6.00052V6.00016V5.9998V5.99945V5.99909V5.99874V5.99838V5.99803V5.99767V5.99731V5.99696V5.9966V5.99625V5.9959V5.99554V5.99519V5.99483V5.99448V5.99412V5.99377V5.99342V5.99306V5.99271V5.99236V5.992V5.99165V5.9913V5.99094V5.99059V5.99024V5.98989V5.98954V5.98918V5.98883V5.98848V5.98813V5.98778V5.98743V5.98707V5.98686C58.9177 5.91482 58.9241 5.8483 58.9241 5.78739C58.9241 4.83918 58.7151 4.00385 58.2962 3.28221C57.8775 2.54904 57.3001 1.98385 56.5643 1.5871C55.8409 1.17831 55.0102 0.974267 54.0728 0.974267C53.1478 0.974267 52.3108 1.18442 51.5623 1.60513C50.8267 2.01374 50.2431 2.57873 49.8118 3.2998L49.8117 3.30009C49.3928 4.02169 49.1837 4.85105 49.1837 5.78739C49.1837 6.72401 49.4055 7.55947 49.8498 8.29303L49.8499 8.29319C50.2939 9.01449 50.9093 9.58536 51.6952 10.0058ZM57.5854 5.20581H50.5622C50.6133 4.6927 50.7566 4.22746 50.9918 3.80975C51.2922 3.27603 51.7113 2.86108 52.2496 2.56454C52.788 2.26801 53.3955 2.11948 54.0728 2.11948C54.7629 2.11948 55.3703 2.26805 55.8958 2.56442C56.4215 2.86091 56.8345 3.27587 57.135 3.80975L57.1353 3.81036C57.3846 4.22615 57.5348 4.69117 57.5854 5.20581ZM54.4702 9.46309C55.0758 9.46309 55.6372 9.36149 56.1544 9.15828L52.4075 9.01484C53.0131 9.31367 53.7007 9.46309 54.4702 9.46309Z" fill="#F5F7FA" stroke="#F5F7FA" stroke-width="0.0514663"/>
<path d="M38.4306 22.7768V12.8844H39.3404L44.1133 20.6005H43.636L48.3641 12.8844H49.2739V22.7768H48.2149V14.4531H48.4685L44.1133 21.5191H43.5912L39.2062 14.4531H39.4896V22.7768H38.4306Z" fill="#005BFF"/>
<path d="M52.2469 17.3077H57.7655V18.1981H52.2469V17.3077ZM52.3662 21.8724H58.6455V22.7768H51.2625V12.8844H58.4218V13.7889H52.3662V21.8724Z" fill="#005BFF"/>
<path d="M38.4306 22.7768V12.8844H39.3404L44.1133 20.6005H43.636L48.3641 12.8844H49.2739V22.7768H48.2149V14.4531H48.4685L44.1133 21.5191H43.5912L39.2062 14.4531H39.4896V22.7768H38.4306Z" stroke="#005BFF" stroke-width="0.514663"/>
<path d="M52.2469 17.3077H57.7655V18.1981H52.2469V17.3077ZM52.3662 21.8724H58.6455V22.7768H51.2625V12.8844H58.4218V13.7889H52.3662V21.8724Z" stroke="#005BFF" stroke-width="0.514663"/>
<path d="M58.5879 8.12754L58.3536 9.66801L56.947 8.1988L58.5879 8.12754Z" fill="#F5F7FA"/>
<path d="M58.5879 8.12754L58.3536 9.66801L56.947 8.1988L58.5879 8.12754Z" fill="#F5F7FA"/>
</svg>
