<svg width="72" height="34" viewBox="0 0 72 34" fill="none" xmlns="http://www.w3.org/2000/svg">
<rect x="1.19189" y="1.4176" width="69.4359" height="31.8929" rx="11.7437" fill="#005BFF"/>
<rect x="1.19189" y="1.4176" width="69.4359" height="31.8929" rx="11.7437" stroke="#005BFF" stroke-width="1.0288"/>
<path d="M14.5755 23V12.5249H18.4115C19.1549 12.5249 19.7704 12.6477 20.258 12.8932C20.7456 13.1353 21.1104 13.4643 21.3525 13.8803C21.5946 14.2929 21.7157 14.7584 21.7157 15.2767C21.7157 15.7131 21.6356 16.0814 21.4753 16.3815C21.315 16.6781 21.1002 16.9168 20.8308 17.0975C20.5649 17.2749 20.2716 17.4044 19.9511 17.4863V17.5886C20.2989 17.6056 20.6382 17.7181 20.9689 17.9261C21.3031 18.1307 21.5793 18.4223 21.7975 18.8008C22.0158 19.1793 22.1249 19.6396 22.1249 20.1818C22.1249 20.7171 21.9987 21.1979 21.7464 21.6241C21.4975 22.0469 21.1121 22.3828 20.5904 22.6317C20.0687 22.8772 19.4021 23 18.5906 23H14.5755ZM16.1559 21.6446H18.4371C19.1941 21.6446 19.7363 21.498 20.0636 21.2047C20.391 20.9115 20.5546 20.5449 20.5546 20.105C20.5546 19.7743 20.4711 19.4708 20.304 19.1946C20.1369 18.9184 19.8982 18.6985 19.5879 18.5348C19.2811 18.3711 18.9162 18.2893 18.4934 18.2893H16.1559V21.6446ZM16.1559 17.0566H18.2734C18.6281 17.0566 18.9469 16.9884 19.2299 16.852C19.5163 16.7156 19.7431 16.5247 19.9102 16.2792C20.0807 16.0303 20.1659 15.737 20.1659 15.3994C20.1659 14.9664 20.0142 14.6032 19.7107 14.31C19.4072 14.0167 18.9418 13.8701 18.3144 13.8701H16.1559V17.0566ZM25.0275 17.8443H27.3087C28.2703 17.8443 29.0102 18.083 29.5285 18.5604C30.0468 19.0377 30.306 19.6532 30.306 20.4068C30.306 20.8978 30.19 21.3394 29.9582 21.7315C29.7263 22.1237 29.387 22.434 28.9403 22.6624C28.4936 22.8875 27.9498 23 27.3087 23H23.8767V15.1437H25.3753V21.6804H27.3087C27.7486 21.6804 28.11 21.5662 28.393 21.3377C28.6761 21.1058 28.8176 20.8109 28.8176 20.4528C28.8176 20.0743 28.6761 19.7658 28.393 19.5271C28.11 19.285 27.7486 19.1639 27.3087 19.1639H25.0275V17.8443ZM31.421 23V15.1437H32.9503V23H31.421ZM36.5012 20.8569L39.964 15.1437H41.6109V23H40.1123V17.2817L36.6649 23H35.0026V15.1437H36.5012V20.8569ZM39.3093 12.484H40.5675C40.5675 13.0603 40.3629 13.5291 39.9537 13.8906C39.548 14.2486 38.999 14.4276 38.3068 14.4276C37.618 14.4276 37.0707 14.2486 36.6649 13.8906C36.2591 13.5291 36.0563 13.0603 36.0563 12.484H37.3094C37.3094 12.7397 37.3844 12.9665 37.5344 13.1643C37.6845 13.3586 37.9419 13.4558 38.3068 13.4558C38.6648 13.4558 38.9205 13.3586 39.074 13.1643C39.2308 12.9699 39.3093 12.7432 39.3093 12.484ZM42.6927 16.4633V15.1437H49.3214V16.4633H46.7589V23H45.2654V16.4633H42.6927ZM52.4376 20.8569L55.9003 15.1437H57.5473V23H56.0487V17.2817L52.6013 23H50.939V15.1437H52.4376V20.8569Z" fill="#F5F7FA"/>
</svg>
