<svg width="60" height="23" viewBox="0 0 60 23" fill="none" xmlns="http://www.w3.org/2000/svg">
<path d="M6.29524 10.4792C7.10799 10.4792 7.8138 10.3829 8.41267 10.1904C9.02223 9.99789 9.5195 9.73444 9.90449 9.40007C10.3002 9.05556 10.5943 8.65025 10.7867 8.18415C10.9792 7.71805 11.0755 7.20635 11.0755 6.64905C11.0755 5.53446 10.6852 4.67825 9.90449 4.08042C9.13452 3.48259 7.95282 3.18368 6.35941 3.18368H3.60034V10.4792H6.29524ZM17.4288 22H13.4977C12.7598 22 12.2251 21.7265 11.8936 21.1793L7.01709 14.1422C6.83529 13.8787 6.63211 13.6912 6.40753 13.5798C6.19365 13.4683 5.87283 13.4126 5.44507 13.4126H3.60034V22H0V0.130371H6.29524C7.86727 0.130371 9.27888 0.179345 10.4018 0.493457C11.5353 0.797437 12.4604 1.22808 13.1769 1.78537C13.9041 2.34267 14.4388 3.01142 14.781 3.79164C15.1232 4.56172 15.2943 5.41286 15.2943 6.34507C15.2943 7.08475 15.1767 7.78391 14.9414 8.44253C14.7168 9.10115 14.3853 9.69898 13.9468 10.236C13.5191 10.773 12.9844 11.2442 12.3427 11.6495C11.7118 12.0548 10.9899 12.374 10.1772 12.6071C10.4552 12.759 10.7119 12.9414 10.9472 13.1542C11.1824 13.3569 11.3963 13.6001 11.5888 13.8838L17.4288 22Z" fill="#A7BD96"/>
<path d="M22.7019 2.80829V9.50308H33.0003V12.181H22.6103V19.3221H33.9154V22H18.3709V0.130371H33.0003V2.80829H22.7019Z" fill="#A7BD96"/>
<path d="M18.246 9.5927C17.262 9.5927 16.3789 9.38949 15.5967 8.98307C14.8271 8.5647 14.2216 7.99691 13.78 7.2797C13.3385 6.55053 13.1177 5.71976 13.1177 4.78739C13.1177 3.84306 13.3385 3.01229 13.78 2.29508C14.2216 1.57787 14.8271 1.01605 15.5967 0.60963C16.3789 0.20321 17.262 0 18.246 0C19.0913 0 19.8545 0.155396 20.5358 0.466188C21.217 0.776979 21.7532 1.24317 22.1443 1.86475L21.1413 2.51024C20.8007 2.0321 20.3781 1.67947 19.8734 1.45235C19.3688 1.22524 18.82 1.11168 18.2271 1.11168C17.5206 1.11168 16.8835 1.26707 16.3158 1.57787C15.7481 1.8767 15.3002 2.30105 14.9722 2.85092C14.6442 3.40078 14.4802 4.04627 14.4802 4.78739C14.4802 5.5285 14.6442 6.17399 14.9722 6.72386C15.3002 7.27372 15.7481 7.70405 16.3158 8.01484C16.8835 8.31367 17.5206 8.46309 18.2271 8.46309C18.82 8.46309 19.3688 8.34954 19.8734 8.12242C20.3781 7.8953 20.8007 7.54865 21.1413 7.08246L22.1443 7.72795C21.7532 8.33758 21.217 8.80377 20.5358 9.12651C19.8545 9.43731 19.0913 9.5927 18.246 9.5927Z" fill="#133215"/>
<path d="M24.7115 13.0712C24.2448 13.0712 23.7969 12.9995 23.368 12.856C22.9516 12.7126 22.5921 12.4974 22.2893 12.2105L22.9138 11.2602C23.1661 11.4873 23.4373 11.6607 23.7275 11.7802C24.0303 11.9117 24.3646 11.9774 24.7305 11.9774C25.172 11.9774 25.5505 11.8579 25.8659 11.6188C26.1939 11.3917 26.503 10.9853 26.7931 10.3996L27.4366 9.01893L27.5879 8.8217L31.6755 0.0896516H33.0001L28.0232 10.6327C27.7456 11.2423 27.4366 11.7264 27.0959 12.085C26.7679 12.4436 26.4084 12.6946 26.0173 12.8381C25.6262 12.9935 25.1909 13.0712 24.7115 13.0712ZM27.3609 9.772L22.7813 0.0896516H24.1817L28.2313 8.73205L27.3609 9.772Z" fill="#133215"/>
<path d="M38.7405 9.5927C37.7565 9.5927 36.8734 9.38949 36.0912 8.98307C35.3216 8.5647 34.7161 7.99691 34.2745 7.2797C33.833 6.55053 33.6122 5.71976 33.6122 4.78739C33.6122 3.84306 33.833 3.01229 34.2745 2.29508C34.7161 1.57787 35.3216 1.01605 36.0912 0.60963C36.8734 0.20321 37.7565 0 38.7405 0C39.5858 0 40.349 0.155396 41.0303 0.466188C41.7115 0.776979 42.2477 1.24317 42.6388 1.86475L41.6358 2.51024C41.2952 2.0321 40.8726 1.67947 40.3679 1.45235C39.8633 1.22524 39.3145 1.11168 38.7216 1.11168C38.0151 1.11168 37.378 1.26707 36.8103 1.57787C36.2426 1.8767 35.7947 2.30105 35.4667 2.85092C35.1387 3.40078 34.9747 4.04627 34.9747 4.78739C34.9747 5.5285 35.1387 6.17399 35.4667 6.72386C35.7947 7.27372 36.2426 7.70405 36.8103 8.01484C37.378 8.31367 38.0151 8.46309 38.7216 8.46309C39.3145 8.46309 39.8633 8.34954 40.3679 8.12242C40.8726 7.8953 41.2952 7.54865 41.6358 7.08246L42.6388 7.72795C42.2477 8.33758 41.7115 8.80377 41.0303 9.12651C40.349 9.43731 39.5858 9.5927 38.7405 9.5927Z" fill="#133215"/>
<path d="M45.1304 9.50305V0.0896516L46.4739 0.0896512V9.50305H45.1304Z" fill="#133215"/>
<path d="M54.4324 9.5927C53.3979 9.5927 52.4895 9.38949 51.7074 8.98307C50.9252 8.5647 50.3133 7.99691 49.8718 7.2797C49.4302 6.55053 49.2094 5.71976 49.2094 4.78739C49.2094 3.85501 49.4176 3.03022 49.8339 2.31301C50.2629 1.5958 50.8432 1.03398 51.5749 0.62756C52.3192 0.209187 53.1519 0 54.0728 0C55.0064 0 55.8327 0.20321 56.5518 0.60963C57.2835 1.0041 57.8576 1.56591 58.2739 2.29508C58.6902 3.01229 58.8984 3.84306 58.8984 4.78739C58.8984 4.84715 58.8921 4.9129 58.8794 4.98462C58.8794 5.04439 58.8794 5.11013 58.8794 5.18185H50.2313V4.23155H58.1603L57.6305 4.60808C57.6305 3.92673 57.4728 3.32308 57.1574 2.79712C56.8546 2.25922 56.4383 1.84084 55.9084 1.542C55.3786 1.24317 54.7667 1.09375 54.0728 1.09375C53.3916 1.09375 52.7797 1.24317 52.2372 1.542C51.6947 1.84084 51.2721 2.25922 50.9693 2.79712C50.6666 3.33503 50.5152 3.95064 50.5152 4.64394V4.84118C50.5152 5.55839 50.6792 6.19192 51.0072 6.74179C51.3478 7.2797 51.8146 7.70405 52.4075 8.01484C53.0131 8.31367 53.7007 8.46309 54.4702 8.46309C55.0758 8.46309 55.6372 8.36149 56.1544 8.15828C56.6843 7.95507 57.1385 7.64428 57.5169 7.2259L58.2739 8.0507C57.8323 8.55275 57.2772 8.93526 56.6086 9.19824C55.9526 9.46121 55.2272 9.5927 54.4324 9.5927Z" fill="#133215"/>
<path d="M38.4307 21.7768V11.8844H39.3405L44.1133 19.6005H43.636L48.3641 11.8844H49.2739V21.7768H48.2149V13.4531H48.4685L44.1133 20.5191H43.5913L39.2062 13.4531H39.4896V21.7768H38.4307Z" fill="#A7BD96"/>
<path d="M52.247 16.3077H57.7655V17.1981H52.247V16.3077ZM52.3663 20.8724H58.6455V21.7768H51.2625V11.8844H58.4218V12.7889H52.3663V20.8724Z" fill="#A7BD96"/>
<path d="M38.4307 21.7768V11.8844H39.3405L44.1133 19.6005H43.636L48.3641 11.8844H49.2739V21.7768H48.2149V13.4531H48.4685L44.1133 20.5191H43.5913L39.2062 13.4531H39.4896V21.7768H38.4307Z" stroke="#A7BD96" stroke-width="0.514663"/>
<path d="M52.247 16.3077H57.7655V17.1981H52.247V16.3077ZM52.3663 20.8724H58.6455V21.7768H51.2625V11.8844H58.4218V12.7889H52.3663V20.8724Z" stroke="#A7BD96" stroke-width="0.514663"/>
<path d="M58.588 7.12748L58.3536 8.66795L56.9471 7.19874L58.588 7.12748Z" fill="#4F6C55"/>
<path d="M58.588 7.12748L58.3536 8.66795L56.9471 7.19874L58.588 7.12748Z" fill="#133215"/>
</svg>
