<svg width="24" height="21" viewBox="0 0 24 21" fill="none" xmlns="http://www.w3.org/2000/svg">
<path d="M1.5 3H22.5C23.4 3 24 2.4 24 1.5C24 0.6 23.4 0 22.5 0H1.5C0.6 0 0 0.6 0 1.5C0 2.4 0.6 3 1.5 3Z" fill="#444444"/>
<path d="M1.5 12.0001H22.5C23.4 12.0001 24 11.4001 24 10.5001C24 9.60006 23.4 9.00006 22.5 9.00006H1.5C0.6 9.00006 0 9.60006 0 10.5001C0 11.4001 0.6 12.0001 1.5 12.0001Z" fill="#444444"/>
<path d="M1.5 21.0001H22.5C23.4 21.0001 24 20.4001 24 19.5001C24 18.6001 23.4 18.0001 22.5 18.0001H1.5C0.6 18.0001 0 18.6001 0 19.5001C0 20.4001 0.6 21.0001 1.5 21.0001Z" fill="#444444"/>
</svg>
