<svg width="75" height="20" viewBox="0 0 75 20" fill="none" xmlns="http://www.w3.org/2000/svg">
<rect width="75" height="20" rx="8" fill="#11C44C"/>
<path d="M14.8084 14.12C14.1524 14.12 13.5484 14.012 12.9964 13.796C12.4444 13.58 11.9644 13.28 11.5564 12.896C11.1484 12.504 10.8324 12.048 10.6084 11.528C10.3844 11 10.2724 10.424 10.2724 9.8C10.2724 9.176 10.3844 8.604 10.6084 8.084C10.8324 7.556 11.1484 7.1 11.5564 6.716C11.9644 6.324 12.4444 6.02 12.9964 5.804C13.5484 5.588 14.1484 5.48 14.7964 5.48C15.4524 5.48 16.0524 5.588 16.5964 5.804C17.1484 6.02 17.6284 6.324 18.0364 6.716C18.4444 7.1 18.7604 7.556 18.9844 8.084C19.2084 8.604 19.3204 9.176 19.3204 9.8C19.3204 10.424 19.2084 11 18.9844 11.528C18.7604 12.056 18.4444 12.512 18.0364 12.896C17.6284 13.28 17.1484 13.58 16.5964 13.796C16.0524 14.012 15.4564 14.12 14.8084 14.12ZM14.7964 12.752C15.2204 12.752 15.6124 12.68 15.9724 12.536C16.3324 12.392 16.6444 12.188 16.9084 11.924C17.1724 11.652 17.3764 11.34 17.5204 10.988C17.6724 10.628 17.7484 10.232 17.7484 9.8C17.7484 9.368 17.6724 8.976 17.5204 8.624C17.3764 8.264 17.1724 7.952 16.9084 7.688C16.6444 7.416 16.3324 7.208 15.9724 7.064C15.6124 6.92 15.2204 6.848 14.7964 6.848C14.3724 6.848 13.9804 6.92 13.6204 7.064C13.2684 7.208 12.9564 7.416 12.6844 7.688C12.4204 7.952 12.2124 8.264 12.0604 8.624C11.9164 8.976 11.8444 9.368 11.8444 9.8C11.8444 10.224 11.9164 10.616 12.0604 10.976C12.2124 11.336 12.4204 11.652 12.6844 11.924C12.9484 12.188 13.2604 12.392 13.6204 12.536C13.9804 12.68 14.3724 12.752 14.7964 12.752ZM22.1037 14V8.504L22.4517 8.864H19.8477V7.592H25.8477V8.864H23.2557L23.6037 8.504V14H22.1037ZM31.5317 14L29.2157 10.928L30.4397 10.172L33.2957 14H31.5317ZM26.9357 14V7.592H28.4357V14H26.9357ZM27.9917 11.432V10.184H30.1637V11.432H27.9917ZM30.5837 10.976L29.1797 10.808L31.5317 7.592H33.1397L30.5837 10.976ZM37.9057 14.084C37.3857 14.084 36.9097 13.964 36.4777 13.724C36.0537 13.484 35.7137 13.124 35.4577 12.644C35.2097 12.156 35.0857 11.54 35.0857 10.796C35.0857 10.044 35.2057 9.428 35.4457 8.948C35.6937 8.468 36.0297 8.112 36.4537 7.88C36.8777 7.64 37.3617 7.52 37.9057 7.52C38.5377 7.52 39.0937 7.656 39.5737 7.928C40.0617 8.2 40.4457 8.58 40.7257 9.068C41.0137 9.556 41.1577 10.132 41.1577 10.796C41.1577 11.46 41.0137 12.04 40.7257 12.536C40.4457 13.024 40.0617 13.404 39.5737 13.676C39.0937 13.948 38.5377 14.084 37.9057 14.084ZM34.3537 16.328V7.592H35.7817V9.104L35.7337 10.808L35.8537 12.512V16.328H34.3537ZM37.7377 12.8C38.0977 12.8 38.4177 12.72 38.6977 12.56C38.9857 12.4 39.2137 12.168 39.3817 11.864C39.5497 11.56 39.6337 11.204 39.6337 10.796C39.6337 10.38 39.5497 10.024 39.3817 9.728C39.2137 9.424 38.9857 9.192 38.6977 9.032C38.4177 8.872 38.0977 8.792 37.7377 8.792C37.3777 8.792 37.0537 8.872 36.7657 9.032C36.4777 9.192 36.2497 9.424 36.0817 9.728C35.9137 10.024 35.8297 10.38 35.8297 10.796C35.8297 11.204 35.9137 11.56 36.0817 11.864C36.2497 12.168 36.4777 12.4 36.7657 12.56C37.0537 12.72 37.3777 12.8 37.7377 12.8ZM49.1186 14V7.592H50.6186V14H49.1186ZM45.7706 9.704C46.5946 9.704 47.2186 9.888 47.6426 10.256C48.0746 10.624 48.2906 11.144 48.2906 11.816C48.2906 12.512 48.0506 13.056 47.5706 13.448C47.0986 13.832 46.4266 14.02 45.5546 14.012L42.6506 14V7.592H44.1506V9.692L45.7706 9.704ZM45.4226 12.908C45.8626 12.916 46.1986 12.824 46.4306 12.632C46.6626 12.44 46.7786 12.16 46.7786 11.792C46.7786 11.424 46.6626 11.16 46.4306 11C46.2066 10.832 45.8706 10.744 45.4226 10.736L44.1506 10.724V12.896L45.4226 12.908ZM53.967 14V8.504L54.315 8.864H51.711V7.592H57.711V8.864H55.119L55.467 8.504V14H53.967ZM61.3738 14.084C60.7178 14.084 60.1338 13.944 59.6218 13.664C59.1098 13.376 58.7058 12.984 58.4098 12.488C58.1138 11.992 57.9658 11.428 57.9658 10.796C57.9658 10.156 58.1138 9.592 58.4098 9.104C58.7058 8.608 59.1098 8.22 59.6218 7.94C60.1338 7.66 60.7178 7.52 61.3738 7.52C62.0378 7.52 62.6258 7.66 63.1378 7.94C63.6578 8.22 64.0618 8.604 64.3498 9.092C64.6458 9.58 64.7938 10.148 64.7938 10.796C64.7938 11.428 64.6458 11.992 64.3498 12.488C64.0618 12.984 63.6578 13.376 63.1378 13.664C62.6258 13.944 62.0378 14.084 61.3738 14.084ZM61.3738 12.8C61.7418 12.8 62.0698 12.72 62.3578 12.56C62.6458 12.4 62.8698 12.168 63.0298 11.864C63.1978 11.56 63.2818 11.204 63.2818 10.796C63.2818 10.38 63.1978 10.024 63.0298 9.728C62.8698 9.424 62.6458 9.192 62.3578 9.032C62.0698 8.872 61.7458 8.792 61.3858 8.792C61.0178 8.792 60.6898 8.872 60.4018 9.032C60.1218 9.192 59.8978 9.424 59.7298 9.728C59.5618 10.024 59.4778 10.38 59.4778 10.796C59.4778 11.204 59.5618 11.56 59.7298 11.864C59.8978 12.168 60.1218 12.4 60.4018 12.56C60.6898 12.72 61.0138 12.8 61.3738 12.8Z" fill="#F5F7FA"/>
</svg>
