<svg width="72" height="34" viewBox="0 0 72 34" fill="none" xmlns="http://www.w3.org/2000/svg">
<rect x="1.19189" y="1.4176" width="69.4359" height="31.8929" rx="11.7437" fill="#005BFF"/>
<rect x="1.19189" y="1.4176" width="69.4359" height="31.8929" rx="11.7437" stroke="#005BFF" stroke-width="1.0288"/>
<path d="M13.3965 12.5249V23H11.8211V13.8752H6.8905V23H5.31514V12.5249H13.3965ZM15.6905 25.9461V15.1437H17.184V16.4173H17.3119C17.4005 16.2536 17.5284 16.0644 17.6955 15.8495C17.8626 15.6347 18.0944 15.4472 18.3911 15.2869C18.6877 15.1232 19.0799 15.0414 19.5675 15.0414C20.2017 15.0414 20.7678 15.2017 21.2656 15.5222C21.7634 15.8427 22.1539 16.3048 22.4369 16.9083C22.7233 17.5118 22.8665 18.2381 22.8665 19.0872C22.8665 19.9362 22.725 20.6642 22.442 21.2712C22.159 21.8747 21.7703 22.3402 21.2758 22.6675C20.7814 22.9915 20.2171 23.1534 19.5828 23.1534C19.1054 23.1534 18.715 23.0733 18.4115 22.913C18.1115 22.7528 17.8762 22.5652 17.7057 22.3504C17.5352 22.1356 17.4039 21.9446 17.3119 21.7776H17.2198V25.9461H15.6905ZM17.1891 19.0718C17.1891 19.6242 17.2692 20.1084 17.4295 20.5244C17.5898 20.9404 17.8216 21.2661 18.1251 21.5014C18.4286 21.7332 18.8003 21.8492 19.2401 21.8492C19.6971 21.8492 20.079 21.7281 20.3858 21.486C20.6927 21.2405 20.9246 20.9081 21.0815 20.4886C21.2417 20.0692 21.3219 19.597 21.3219 19.0718C21.3219 18.5535 21.2434 18.0881 21.0866 17.6755C20.9331 17.2629 20.7013 16.9373 20.391 16.6986C20.0841 16.4599 19.7005 16.3406 19.2401 16.3406C18.7969 16.3406 18.4218 16.4548 18.1149 16.6832C17.8114 16.9117 17.5812 17.2305 17.4244 17.6397C17.2675 18.0489 17.1891 18.5263 17.1891 19.0718ZM27.8892 23.1586C27.1527 23.1586 26.5099 22.9898 25.961 22.6522C25.412 22.3146 24.9857 21.8424 24.6823 21.2354C24.3788 20.6284 24.2271 19.9192 24.2271 19.1077C24.2271 18.2927 24.3788 17.58 24.6823 16.9697C24.9857 16.3593 25.412 15.8853 25.961 15.5478C26.5099 15.2102 27.1527 15.0414 27.8892 15.0414C28.6258 15.0414 29.2685 15.2102 29.8175 15.5478C30.3665 15.8853 30.7927 16.3593 31.0962 16.9697C31.3997 17.58 31.5514 18.2927 31.5514 19.1077C31.5514 19.9192 31.3997 20.6284 31.0962 21.2354C30.7927 21.8424 30.3665 22.3146 29.8175 22.6522C29.2685 22.9898 28.6258 23.1586 27.8892 23.1586ZM27.8943 21.8747C28.3717 21.8747 28.7673 21.7486 29.081 21.4963C29.3947 21.2439 29.6266 20.9081 29.7766 20.4886C29.93 20.0692 30.0068 19.6072 30.0068 19.1025C30.0068 18.6013 29.93 18.141 29.7766 17.7215C29.6266 17.2987 29.3947 16.9594 29.081 16.7037C28.7673 16.448 28.3717 16.3201 27.8943 16.3201C27.4136 16.3201 27.0146 16.448 26.6975 16.7037C26.3838 16.9594 26.1502 17.2987 25.9968 17.7215C25.8467 18.141 25.7717 18.6013 25.7717 19.1025C25.7717 19.6072 25.8467 20.0692 25.9968 20.4886C26.1502 20.9081 26.3838 21.2439 26.6975 21.4963C27.0146 21.7486 27.4136 21.8747 27.8943 21.8747ZM36.6393 25.675V12.5249H38.1687V25.675H36.6393ZM36.6393 23.1586C36.0835 23.1586 35.5772 23.0631 35.1203 22.8721C34.6633 22.6778 34.2695 22.4016 33.9387 22.0435C33.608 21.6855 33.3522 21.2576 33.1715 20.7597C32.9942 20.2619 32.9056 19.7112 32.9056 19.1077C32.9056 18.4973 32.9942 17.9432 33.1715 17.4453C33.3522 16.9475 33.608 16.5196 33.9387 16.1615C34.2695 15.8035 34.6633 15.5273 35.1203 15.3329C35.5772 15.1386 36.0835 15.0414 36.6393 15.0414H37.0178V23.1586H36.6393ZM36.6393 21.8696H36.8542V16.3303H36.6393C36.2711 16.3303 35.9506 16.4053 35.6778 16.5554C35.405 16.702 35.1782 16.9049 34.9975 17.164C34.8168 17.4198 34.6804 17.7147 34.5883 18.0489C34.4997 18.3831 34.4553 18.736 34.4553 19.1077C34.4553 19.6055 34.5355 20.0641 34.6957 20.4835C34.856 20.8995 35.0981 21.2354 35.422 21.4911C35.746 21.7435 36.1517 21.8696 36.6393 21.8696ZM38.1687 23.1586H37.7851V15.0414H38.1687C38.7245 15.0414 39.2308 15.1386 39.6878 15.3329C40.1447 15.5273 40.5368 15.8035 40.8642 16.1615C41.1949 16.5196 41.4489 16.9475 41.6263 17.4453C41.807 17.9432 41.8973 18.4973 41.8973 19.1077C41.8973 19.7112 41.807 20.2619 41.6263 20.7597C41.4489 21.2576 41.1949 21.6855 40.8642 22.0435C40.5368 22.4016 40.1447 22.6778 39.6878 22.8721C39.2308 23.0631 38.7245 23.1586 38.1687 23.1586ZM38.1687 21.8696C38.5369 21.8696 38.8575 21.798 39.1302 21.6548C39.403 21.5082 39.6298 21.307 39.8105 21.0513C39.9912 20.7921 40.1259 20.4972 40.2146 20.1664C40.3032 19.8322 40.3476 19.4793 40.3476 19.1077C40.3476 18.6132 40.2674 18.1563 40.1072 17.7369C39.9503 17.3141 39.7099 16.9748 39.386 16.719C39.062 16.4599 38.6563 16.3303 38.1687 16.3303H37.9487V21.8696H38.1687ZM45.0954 20.8569L48.5581 15.1437H50.205V23H48.7064V17.2817L45.259 23H43.5967V15.1437H45.0954V20.8569ZM51.6423 23L51.6372 21.6753H51.9185C52.1367 21.6753 52.3191 21.6292 52.4658 21.5372C52.6158 21.4417 52.7385 21.2814 52.834 21.0564C52.9295 20.8313 53.0028 20.521 53.054 20.1255C53.1051 19.7265 53.1426 19.2253 53.1665 18.6217L53.3046 15.1437H58.7876V23H57.289V16.4633H54.7214L54.5986 19.1332C54.5679 19.7811 54.5014 20.3471 54.3991 20.8313C54.3003 21.3155 54.1553 21.7196 53.9644 22.0435C53.7734 22.3641 53.5279 22.6045 53.2279 22.7647C52.9278 22.9216 52.5629 23 52.1333 23H51.6423ZM61.978 17.8443H64.2592C65.2207 17.8443 65.9607 18.083 66.479 18.5604C66.9973 19.0377 67.2564 19.6532 67.2564 20.4068C67.2564 20.8978 67.1405 21.3394 66.9086 21.7315C66.6768 22.1237 66.3375 22.434 65.8908 22.6624C65.4441 22.8875 64.9002 23 64.2592 23H60.8272V15.1437H62.3258V21.6804H64.2592C64.699 21.6804 65.0605 21.5662 65.3435 21.3377C65.6265 21.1058 65.768 20.8109 65.768 20.4528C65.768 20.0743 65.6265 19.7658 65.3435 19.5271C65.0605 19.285 64.699 19.1639 64.2592 19.1639H61.978V17.8443Z" fill="#F5F7FA"/>
</svg>
