<svg width="28" height="28" viewBox="0 0 28 28" fill="none" xmlns="http://www.w3.org/2000/svg">
<rect width="28" height="28" rx="14" fill="#183347"/>
<path d="M9.21429 18.7857C9.35714 18.9286 9.5 19 9.71429 19C9.92857 19 10.0714 18.9286 10.2143 18.7857L14 15L17.7857 18.7857C17.9286 18.9286 18.1429 19 18.2857 19C18.4286 19 18.6429 18.9286 18.7857 18.7857C19.0714 18.5 19.0714 18.0714 18.7857 17.7857L15 14L18.7857 10.2143C19.0714 9.92857 19.0714 9.5 18.7857 9.21429C18.5 8.92857 18.0714 8.92857 17.7857 9.21429L14 13L10.2143 9.21429C9.92857 8.92857 9.5 8.92857 9.21429 9.21429C8.92857 9.5 8.92857 9.92857 9.21429 10.2143L13 14L9.21429 17.7857C8.92857 18.0714 8.92857 18.5 9.21429 18.7857Z" fill="#005BFF"/>
</svg>
